<svg xmlns="http://www.w3.org/2000/svg" version="1.1" width="16" height="16">
  <desc>Created with Raphaël</desc>
  <defs/>
  <path fill="#666666" stroke="none" d="M7.999999999999998,2.1863999999999972C4.788999999999998,2.1863999999999972,2.185999999999998,4.789399999999997,2.185999999999998,8.000399999999997C2.185999999999998,11.210399999999996,4.788999999999998,13.813399999999998,7.999999999999998,13.813399999999998C11.210999999999999,13.813399999999998,13.813999999999998,11.210399999999998,13.813999999999998,8.000399999999999C13.813999999999998,4.789399999999999,11.210999999999999,2.186399999999999,7.999999999999998,2.186399999999999ZM9.262999999999998,10.907399999999997C9.231999999999998,10.933399999999997,9.189999999999998,10.959399999999997,9.220999999999998,10.990399999999998C9.251999999999999,11.021399999999998,9.184999999999999,11.042399999999997,9.184999999999999,11.058399999999997S9.226999999999999,11.156399999999998,9.206,11.192399999999997C9.184999999999999,11.229399999999998,9.17,11.282399999999997,9.154,11.313399999999998C9.138,11.344399999999998,9.102,11.375399999999997,9.112,11.422399999999998C9.122,11.468399999999997,9.071,11.452399999999997,9.071,11.499399999999998C9.071,11.546399999999998,9.116999999999999,11.525399999999998,9.107,11.582399999999998C9.097,11.640399999999998,9.071,11.656399999999998,9.071,11.696399999999999C9.071,11.738399999999999,9.096,11.795399999999999,9.096,11.811399999999999S9.071,11.879399999999999,9.034,11.920399999999999C8.998000000000001,11.9614,8.972000000000001,11.988399999999999,8.977,12.013399999999999C8.982000000000001,12.039399999999999,9.018,12.0704,9.013,12.0864C9.008,12.1014,8.962,12.154399999999999,8.967,12.190399999999999C8.972000000000001,12.226399999999998,9.018,12.2114,9.029,12.236399999999998C9.039,12.262399999999998,8.967,12.284399999999998,8.998,12.310399999999998C9.029,12.335399999999998,9.071,12.330399999999997,9.059999999999999,12.393399999999998C9.052,12.438399999999998,9.085999999999999,12.458399999999997,9.11,12.472399999999999C8.754,12.560399999999998,8.383,12.613399999999999,7.999999999999999,12.613399999999999C5.4559999999999995,12.613399999999999,3.3859999999999992,10.5444,3.3859999999999992,8.000399999999999C3.3859999999999992,7.170399999999999,3.608999999999999,6.394399999999999,3.9939999999999993,5.721399999999999C4.0249999999999995,5.704399999999999,4.047999999999999,5.6934,4.061999999999999,5.696399999999999C4.087999999999999,5.701399999999999,4.093999999999999,5.738399999999999,4.135,5.748399999999998C4.177,5.758399999999998,4.213,5.717399999999999,4.239,5.701399999999999C4.265,5.686399999999999,4.286,5.623399999999998,4.26,5.628399999999998C4.234,5.6343999999999985,4.1659999999999995,5.628399999999998,4.1659999999999995,5.628399999999998S4.239,5.587399999999998,4.239,5.561399999999998S4.249,5.4933999999999985,4.2909999999999995,5.478399999999998C4.332,5.462399999999998,4.332,5.472399999999998,4.305999999999999,5.534399999999998C4.279999999999999,5.597399999999998,4.357999999999999,5.571399999999998,4.388999999999999,5.545399999999998S4.440999999999999,5.540399999999998,4.497999999999999,5.503399999999998C4.555,5.467399999999999,4.555,5.446399999999998,4.585999999999999,5.446399999999998C4.617999999999999,5.446399999999998,4.675,5.503399999999998,4.7059999999999995,5.4823999999999975C4.736999999999999,5.462399999999998,4.826,5.508399999999997,4.877999999999999,5.508399999999997C4.928999999999999,5.508399999999997,5.095999999999999,5.576399999999997,5.126999999999999,5.576399999999997C5.157999999999999,5.576399999999997,5.251999999999999,5.6123999999999965,5.256999999999999,5.680399999999997C5.261999999999999,5.747399999999997,5.292999999999998,5.742399999999997,5.323999999999999,5.742399999999997S5.427999999999999,5.768399999999997,5.427999999999999,5.794399999999997C5.427999999999999,5.820399999999997,5.4079999999999995,5.924399999999997,5.459999999999999,5.950399999999997C5.510999999999999,5.976399999999996,5.557999999999999,6.018399999999996,5.578999999999999,6.007399999999997C5.599999999999999,5.997399999999997,5.578999999999999,5.914399999999997,5.5539999999999985,5.903399999999997C5.527999999999999,5.893399999999997,5.542999999999998,5.856399999999997,5.532999999999999,5.836399999999997C5.5219999999999985,5.815399999999997,5.563999999999998,5.815399999999997,5.579999999999998,5.851399999999996C5.594999999999998,5.888399999999996,5.636999999999999,5.9553999999999965,5.6629999999999985,5.9553999999999965C5.687999999999999,5.9553999999999965,5.745999999999999,6.018399999999996,5.729999999999999,6.054399999999997C5.713999999999999,6.090399999999996,5.745999999999999,6.142399999999997,5.791999999999999,6.142399999999997C5.838999999999999,6.142399999999997,5.895999999999999,6.215399999999997,5.916999999999999,6.220399999999997C5.937999999999999,6.226399999999997,5.963999999999999,6.252399999999997,5.963999999999999,6.267399999999997C5.963999999999999,6.283399999999997,5.989999999999998,6.371399999999997,5.989999999999998,6.408399999999997C5.989999999999998,6.444399999999996,5.973999999999998,6.589399999999997,5.9689999999999985,6.646399999999996S6.009999999999999,6.802399999999996,6.0619999999999985,6.8543999999999965C6.113999999999998,6.906399999999996,6.160999999999999,7.005399999999996,6.191999999999998,7.026399999999996C6.223999999999998,7.047399999999996,6.243999999999998,7.1043999999999965,6.290999999999999,7.099399999999997C6.337999999999998,7.094399999999997,6.368999999999999,7.130399999999996,6.409999999999998,7.203399999999997C6.451999999999998,7.276399999999997,6.493999999999998,7.395399999999997,6.524999999999999,7.405399999999997C6.555999999999998,7.416399999999997,6.607999999999999,7.452399999999996,6.581999999999999,7.478399999999997C6.555999999999999,7.504399999999997,6.513999999999999,7.561399999999997,6.560999999999999,7.561399999999997C6.607999999999999,7.561399999999997,6.623999999999999,7.535399999999997,6.659999999999999,7.582399999999997C6.695999999999999,7.629399999999997,6.742999999999999,7.6553999999999975,6.7379999999999995,7.686399999999997C6.731999999999999,7.717399999999997,6.779,7.728399999999997,6.8,7.733399999999997C6.821,7.738399999999997,6.867999999999999,7.832399999999997,6.914,7.790399999999997C6.960999999999999,7.7483999999999975,6.851999999999999,7.686399999999997,6.821,7.660399999999997C6.79,7.634399999999998,6.821,7.577399999999997,6.747999999999999,7.520399999999998C6.674999999999999,7.462399999999998,6.685999999999999,7.4213999999999976,6.6339999999999995,7.379399999999998C6.582,7.338399999999997,6.539999999999999,7.3013999999999974,6.592,7.265399999999998C6.643999999999999,7.228399999999998,6.649,7.3013999999999974,6.67,7.348399999999998C6.691,7.394399999999998,6.8,7.488399999999998,6.846,7.530399999999998C6.893,7.571399999999999,6.977,7.717399999999999,7.002,7.717399999999999S7.101,7.800399999999999,7.101,7.800399999999999S7.142,7.867399999999999,7.127,7.888399999999999C7.111,7.909399999999999,7.148,7.987399999999999,7.184,8.008399999999998C7.22,8.028399999999998,7.3660000000000005,8.096399999999997,7.3870000000000005,8.106399999999999C7.408,8.117399999999998,7.449000000000001,8.1954,7.507000000000001,8.1954C7.564000000000001,8.1954,7.606000000000001,8.2004,7.621,8.2164C7.6370000000000005,8.2314,7.683000000000001,8.2944,7.715000000000001,8.2584C7.746,8.2214,7.751,8.2054,7.798000000000001,8.2054C7.845000000000001,8.2054,7.865000000000001,8.2424,7.891000000000001,8.2684C7.917000000000001,8.2944,7.990000000000001,8.3624,8.026000000000002,8.356399999999999C8.063000000000002,8.351399999999998,8.110000000000001,8.398399999999999,8.136000000000001,8.382399999999999S8.203000000000001,8.392399999999999,8.224,8.4034C8.245000000000001,8.4134,8.317,8.4504,8.312,8.5124C8.306999999999999,8.574399999999999,8.354,8.590399999999999,8.385,8.6054C8.416,8.6214,8.458,8.657399999999999,8.484,8.683399999999999C8.51,8.7084,8.567,8.7144,8.583,8.7304C8.598,8.7454,8.609,8.776399999999999,8.656,8.750399999999999C8.702,8.725399999999999,8.692,8.6784,8.692,8.6784S8.744,8.6684,8.77,8.6884C8.796,8.7084,8.812,8.776399999999999,8.828,8.7874C8.843,8.7974,8.873999999999999,8.875399999999999,8.853,8.9324C8.831999999999999,8.9904,8.838,9.0464,8.815999999999999,9.0464C8.796,9.0464,8.77,9.1144,8.738,9.1304C8.708,9.1454,8.623999999999999,9.218399999999999,8.629999999999999,9.2444C8.635,9.269400000000001,8.681999999999999,9.3474,8.671,9.384400000000001C8.661,9.4204,8.594,9.4624,8.61,9.519400000000001C8.625,9.5774,8.734,9.592400000000001,8.738999999999999,9.644400000000001C8.744,9.6964,8.822,9.8114,8.832999999999998,9.862400000000001C8.842999999999998,9.9144,8.931,9.971400000000001,8.931,10.044400000000001C8.931,10.117400000000002,9.056,10.1644,9.081999999999999,10.168400000000002C9.107,10.174400000000002,9.155,10.221400000000003,9.190999999999999,10.236400000000001S9.258,10.283400000000002,9.283999999999999,10.325400000000002S9.305,10.429400000000001,9.305,10.444400000000002C9.305,10.460400000000002,9.29,10.620400000000002,9.274,10.714400000000001C9.258,10.8084,9.293999999999999,10.881400000000001,9.263,10.9074ZM5.905999999999998,6.0753999999999975C5.921999999999998,6.080399999999997,5.952999999999998,6.111399999999997,5.968999999999998,6.111399999999997C5.984999999999998,6.111399999999997,6.061999999999998,6.173399999999997,6.0829999999999975,6.194399999999997C6.103999999999997,6.215399999999997,6.103999999999997,6.2723999999999975,6.077999999999998,6.277399999999997S6.035999999999998,6.220399999999997,6.030999999999998,6.194399999999997C6.025999999999998,6.168399999999997,5.9739999999999975,6.168399999999997,5.947999999999998,6.153399999999997C5.921999999999998,6.137399999999997,5.863999999999998,6.060399999999997,5.905999999999998,6.075399999999997ZM12.604,8.164399999999997C12.546,8.237399999999997,12.552,8.273399999999997,12.526,8.278399999999998C12.5,8.283399999999999,12.552,8.304399999999998,12.562,8.356399999999997C12.569999999999999,8.401399999999997,12.536,8.445399999999998,12.587,8.487399999999997C12.392,10.334399999999997,11.103,11.860399999999998,9.379999999999999,12.401399999999997C9.377999999999998,12.397399999999998,9.373,12.391399999999997,9.372,12.388399999999997C9.361,12.357399999999997,9.361,12.295399999999997,9.398,12.274399999999996C9.434,12.253399999999996,9.522,12.181399999999996,9.543,12.165399999999996C9.564,12.149399999999996,9.594999999999999,12.077399999999997,9.578999999999999,12.066399999999996C9.563999999999998,12.056399999999996,9.485999999999999,12.066399999999996,9.475,12.051399999999996C9.465,12.035399999999996,9.465,12.014399999999995,9.517,11.978399999999995C9.568999999999999,11.941399999999994,9.594999999999999,11.889399999999995,9.616,11.874399999999996C9.636,11.858399999999996,9.677999999999999,11.827399999999995,9.693999999999999,11.790399999999996C9.709,11.754399999999997,9.677,11.775399999999996,9.645999999999999,11.775399999999996S9.6,11.718399999999995,9.6,11.692399999999996S9.677999999999999,11.702399999999995,9.735,11.713399999999996C9.792,11.722399999999997,9.766,11.687399999999997,9.761,11.656399999999996C9.755999999999998,11.625399999999996,9.770999999999999,11.572399999999996,9.802999999999999,11.588399999999996C9.832999999999998,11.603399999999997,9.994,11.583399999999996,10.014999999999999,11.577399999999997C10.036,11.572399999999996,10.092999999999998,11.479399999999996,10.113999999999999,11.453399999999997C10.135,11.427399999999997,10.139,11.401399999999997,10.113999999999999,11.385399999999997C10.088,11.369399999999997,10.056,11.312399999999997,10.046,11.297399999999998C10.036,11.281399999999998,10.030999999999999,11.187399999999998,10.040999999999999,11.161399999999999C10.050999999999998,11.136399999999998,10.040999999999999,11.312399999999998,10.113999999999999,11.3334C10.187,11.3544,10.228,11.3644,10.296,11.302399999999999C10.363,11.2404,10.415,11.1984,10.42,11.157399999999999C10.426,11.1154,10.441,11.0734,10.467,11.058399999999999C10.493,11.043399999999998,10.509,11.0994,10.540000000000001,11.032399999999999C10.571000000000002,10.9644,10.602,10.969399999999998,10.634,10.9134C10.664,10.8554,10.582,10.783399999999999,10.643,10.741399999999999C10.706000000000001,10.699399999999999,10.815000000000001,10.6474,10.815000000000001,10.6474S10.846000000000002,10.632399999999999,10.909,10.616399999999999C10.971,10.601399999999998,11.038,10.611399999999998,11.059000000000001,10.5804C11.080000000000002,10.549399999999999,11.101,10.481399999999999,11.132000000000001,10.4454C11.164000000000001,10.408399999999999,11.200000000000001,10.3514,11.184000000000001,10.3254C11.168000000000001,10.2994,11.226,10.1854,11.22,10.1544C11.215,10.1234,11.168000000000001,10.0494,11.246,9.987400000000001S11.407,9.8314,11.413,9.806400000000002C11.418000000000001,9.780400000000002,11.48,9.671400000000002,11.474,9.618400000000001C11.47,9.567400000000001,11.413,9.5044,11.376,9.4884C11.34,9.4734,11.261999999999999,9.4684,11.231,9.4274S11.111,9.3434,11.08,9.3544C11.049,9.3644,10.997,9.3744,10.955,9.3484C10.914,9.3234,10.846,9.2914,10.82,9.2704C10.794,9.2504,10.727,9.2344,10.696,9.2344S10.67,9.2134,10.623,9.275400000000001C10.575999999999999,9.338400000000002,10.623,9.3594,10.54,9.348400000000002C10.456,9.339400000000001,10.549999999999999,9.333400000000001,10.597,9.271400000000002C10.642999999999999,9.209400000000002,10.591999999999999,9.172400000000001,10.54,9.188400000000001C10.488,9.203400000000002,10.524,9.235400000000002,10.440999999999999,9.2504C10.357999999999999,9.265400000000001,10.357999999999999,9.2134,10.409999999999998,9.2034C10.461999999999998,9.1934,10.554999999999998,9.1464,10.554999999999998,9.1264C10.554999999999998,9.1054,10.544999999999998,9.0474,10.502999999999998,9.0474S10.471999999999998,8.9964,10.409999999999998,8.9294C10.347999999999999,8.8614,10.269999999999998,8.8194,10.206999999999999,8.8294C10.145,8.8394,10.097999999999999,8.8554,10.066999999999998,8.7994C10.035999999999998,8.7414,9.998999999999999,8.7314,9.977999999999998,8.7004C9.957999999999998,8.6694,9.904999999999998,8.7004,9.889999999999999,8.6844S9.873999999999999,8.6694,9.873999999999999,8.6694S9.806,8.6844,9.842999999999998,8.6374C9.878999999999998,8.5914,9.894999999999998,8.5024,9.878999999999998,8.507399999999999C9.863999999999997,8.513399999999999,9.837999999999997,8.5864,9.811999999999998,8.581399999999999C9.785999999999998,8.575399999999998,9.805999999999997,8.565399999999999,9.753999999999998,8.534399999999998C9.701999999999998,8.503399999999997,9.619999999999997,8.529399999999997,9.619999999999997,8.555399999999999C9.619999999999997,8.581399999999999,9.593999999999998,8.601399999999998,9.593999999999998,8.601399999999998S9.577999999999998,8.586399999999998,9.561999999999998,8.555399999999999C9.546999999999997,8.523399999999999,9.473999999999998,8.518399999999998,9.437999999999997,8.549399999999999C9.401999999999997,8.581399999999999,9.380999999999997,8.4714,9.354999999999997,8.4714S9.276999999999997,8.497399999999999,9.250999999999998,8.545399999999999C9.224999999999998,8.591399999999998,9.235999999999997,8.6594,9.213999999999997,8.6534C9.193999999999997,8.648399999999999,9.188999999999997,8.5604,9.193999999999997,8.529399999999999C9.198999999999998,8.497399999999999,9.255999999999997,8.4454,9.213999999999997,8.4354C9.172999999999996,8.4254,9.109999999999998,8.4874,9.084999999999997,8.4924C9.058999999999997,8.4974,9.006999999999998,8.5344,8.975999999999997,8.5764C8.944999999999997,8.6174,8.928999999999997,8.6434,8.897999999999998,8.6594C8.866999999999997,8.6744,8.819999999999999,8.6594,8.830999999999998,8.6434C8.840999999999998,8.6274,8.741999999999997,8.5714,8.725999999999997,8.5914C8.709999999999997,8.612400000000001,8.663999999999998,8.6274,8.617999999999997,8.6494C8.570999999999996,8.6694,8.528999999999996,8.6234,8.518999999999997,8.6024S8.486999999999997,8.5764,8.481999999999996,8.5084C8.476999999999995,8.4414,8.492999999999995,8.3684,8.507999999999996,8.3274C8.523999999999996,8.285400000000001,8.429999999999996,8.2024,8.393999999999995,8.207400000000002C8.357999999999995,8.213400000000002,8.320999999999994,8.249400000000001,8.284999999999995,8.243400000000001C8.247999999999994,8.2384,8.263999999999994,8.2284,8.206999999999995,8.2284C8.149999999999995,8.2284,8.196999999999996,8.2184,8.206999999999995,8.1714C8.216999999999995,8.1244,8.185999999999995,8.0614,8.243999999999996,8.0204C8.300999999999997,7.978400000000001,8.279999999999996,7.8794,8.243999999999996,7.875400000000001C8.206999999999995,7.869400000000001,8.139999999999997,7.8904000000000005,8.092999999999996,7.885400000000001C8.046999999999997,7.8794,8.009999999999996,7.9214,8.025999999999996,7.968400000000001C8.040999999999997,8.015400000000001,7.9999999999999964,8.0464,7.983999999999996,8.041400000000001C7.967999999999996,8.0364,7.947999999999997,8.0104,7.889999999999996,8.051400000000001C7.833999999999996,8.0934,7.812999999999996,8.0774,7.755999999999996,8.031400000000001C7.697999999999996,7.983400000000001,7.635999999999996,7.937400000000001,7.625999999999996,7.864400000000002C7.614999999999996,7.791400000000001,7.609999999999996,7.719400000000002,7.630999999999996,7.677400000000001C7.650999999999995,7.6354000000000015,7.650999999999995,7.5634000000000015,7.619999999999996,7.552400000000001C7.588999999999996,7.5424000000000015,7.655999999999995,7.490400000000001,7.692999999999996,7.480400000000001C7.729999999999996,7.469400000000001,7.785999999999996,7.423400000000001,7.796999999999996,7.402400000000001C7.806999999999996,7.381400000000001,7.858999999999996,7.386400000000001,7.915999999999996,7.386400000000001C7.972999999999996,7.386400000000001,7.9839999999999955,7.386400000000001,8.040999999999997,7.417400000000001C8.097999999999997,7.4484,8.107999999999997,7.401400000000001,8.107999999999997,7.386400000000001C8.107999999999997,7.370400000000001,8.128999999999998,7.339400000000001,8.191999999999997,7.344400000000001C8.253999999999996,7.349400000000001,8.341999999999997,7.323400000000001,8.357999999999997,7.339400000000001S8.403999999999996,7.4174000000000015,8.435999999999996,7.396400000000002C8.466999999999997,7.376400000000002,8.476999999999997,7.339400000000001,8.487999999999996,7.402400000000002C8.497999999999996,7.464400000000002,8.523999999999996,7.558400000000002,8.570999999999996,7.573400000000002C8.617999999999997,7.589400000000002,8.591999999999997,7.651400000000002,8.637999999999996,7.656400000000002C8.683999999999996,7.661400000000002,8.705999999999996,7.5584000000000024,8.690999999999997,7.5214000000000025C8.674999999999997,7.485400000000003,8.643999999999997,7.376400000000003,8.617999999999997,7.350400000000002C8.591999999999997,7.3244000000000025,8.591999999999997,7.257400000000002,8.642999999999997,7.236400000000002C8.694999999999997,7.2154000000000025,8.819999999999997,7.111400000000002,8.855999999999996,7.080400000000003C8.892999999999997,7.049400000000003,8.990999999999996,7.023400000000002,8.959999999999996,6.9814000000000025C8.928999999999995,6.939400000000003,8.918999999999995,6.914400000000002,8.918999999999995,6.882400000000002S8.949999999999996,6.861400000000002,8.965999999999996,6.882400000000002S9.042999999999996,6.851400000000003,9.027999999999995,6.825400000000002C9.011999999999995,6.799400000000002,9.016999999999996,6.763400000000002,9.053999999999995,6.7684000000000015C9.089999999999995,6.773400000000001,9.099999999999994,6.742400000000002,9.084999999999996,6.721400000000002C9.068999999999996,6.700400000000002,9.120999999999995,6.674400000000002,9.157999999999996,6.685400000000002C9.193999999999996,6.695400000000002,9.287999999999997,6.679400000000002,9.302999999999995,6.659400000000002C9.317999999999996,6.6384000000000025,9.271999999999995,6.617400000000003,9.271999999999995,6.575400000000003C9.271999999999995,6.534400000000002,9.333999999999994,6.4974000000000025,9.370999999999995,6.492400000000003C9.406999999999995,6.487400000000003,9.453999999999995,6.492400000000003,9.458999999999994,6.477400000000003C9.463999999999995,6.461400000000003,9.515999999999995,6.419400000000003,9.520999999999994,6.456400000000003C9.526999999999994,6.492400000000003,9.520999999999994,6.555400000000003,9.562999999999994,6.555400000000003C9.603999999999994,6.555400000000003,9.655999999999993,6.5084000000000035,9.671999999999993,6.503400000000004C9.686999999999994,6.498400000000004,9.785999999999994,6.477400000000004,9.806999999999993,6.472400000000004C9.827999999999994,6.467400000000004,9.951999999999993,6.456400000000004,9.936999999999994,6.420400000000004C9.920999999999994,6.384400000000005,9.905999999999993,6.347400000000004,9.889999999999993,6.332400000000004C9.873999999999993,6.316400000000004,9.858999999999993,6.337400000000004,9.837999999999994,6.363400000000004C9.816999999999993,6.389400000000004,9.779999999999994,6.389400000000004,9.769999999999994,6.368400000000004C9.759999999999994,6.348400000000004,9.774999999999995,6.285400000000004,9.738999999999994,6.306400000000004C9.701999999999993,6.3274000000000035,9.697999999999993,6.347400000000004,9.675999999999993,6.337400000000003C9.655999999999993,6.3274000000000035,9.634999999999993,6.2904000000000035,9.634999999999993,6.2904000000000035S9.686999999999992,6.265400000000003,9.649999999999993,6.217400000000003C9.613999999999994,6.171400000000003,9.561999999999994,6.181400000000004,9.509999999999993,6.207400000000003C9.457999999999993,6.233400000000003,9.462999999999992,6.228400000000003,9.400999999999993,6.243400000000003S9.307999999999993,6.275400000000003,9.307999999999993,6.275400000000003S9.390999999999993,6.223400000000003,9.426999999999992,6.191400000000003C9.463999999999993,6.160400000000004,9.510999999999992,6.145400000000003,9.541999999999993,6.113400000000003C9.572999999999993,6.082400000000003,9.655999999999993,6.129400000000003,9.655999999999993,6.129400000000003S9.697999999999993,6.087400000000003,9.697999999999993,6.113400000000003S9.686999999999994,6.207400000000003,9.717999999999993,6.207400000000003C9.749999999999993,6.207400000000003,9.837999999999992,6.1654000000000035,9.801999999999992,6.155400000000004C9.764999999999992,6.144400000000004,9.853999999999992,6.155400000000004,9.889999999999992,6.129400000000004C9.925999999999991,6.103400000000004,9.966999999999992,6.103400000000004,9.987999999999992,6.093400000000004C10.008999999999993,6.082400000000004,10.024999999999993,6.0354000000000045,10.060999999999993,6.0354000000000045C10.097999999999994,6.0354000000000045,10.112999999999992,6.082400000000004,10.060999999999993,6.113400000000005S10.003999999999992,6.223400000000005,9.977999999999993,6.243400000000005C9.951999999999993,6.264400000000005,9.967999999999993,6.290400000000004,10.008999999999993,6.2854000000000045C10.050999999999993,6.280400000000005,10.086999999999993,6.290400000000004,10.123999999999993,6.280400000000005S10.180999999999994,6.290400000000004,10.190999999999994,6.3064000000000044C10.200999999999993,6.321400000000004,10.231999999999994,6.290400000000004,10.231999999999994,6.290400000000004S10.299999999999994,6.275400000000005,10.320999999999994,6.3014000000000046C10.341999999999995,6.326400000000005,10.357999999999995,6.2854000000000045,10.341999999999995,6.259400000000005C10.325999999999995,6.233400000000005,10.304999999999994,6.207400000000005,10.289999999999996,6.1764000000000046C10.273999999999996,6.145400000000005,10.253999999999996,6.134400000000005,10.211999999999996,6.145400000000005C10.170999999999996,6.155400000000005,10.159999999999997,6.134400000000005,10.133999999999997,6.119400000000005C10.107999999999997,6.103400000000005,10.086999999999996,6.140400000000005,10.107999999999997,6.103400000000005C10.129999999999997,6.0674000000000055,10.139999999999997,6.056400000000005,10.154999999999998,6.025400000000005C10.170999999999998,5.994400000000005,10.238999999999997,5.937400000000005,10.170999999999998,5.921400000000005C10.102999999999998,5.905400000000005,10.081999999999997,5.895400000000005,10.071999999999997,5.864400000000004C10.061999999999998,5.833400000000005,9.983999999999998,5.776400000000004,9.962999999999997,5.776400000000004C9.941999999999997,5.776400000000004,9.869999999999997,5.776400000000004,9.863999999999997,5.750400000000004C9.858999999999996,5.724400000000005,9.806999999999997,5.667400000000004,9.780999999999997,5.641400000000004C9.755999999999997,5.615400000000005,9.655999999999997,5.500400000000004,9.640999999999996,5.490400000000005C9.624999999999996,5.4794000000000045,9.603999999999996,5.485400000000005,9.557999999999996,5.547400000000005C9.510999999999996,5.610400000000005,9.469999999999997,5.620400000000005,9.432999999999996,5.605400000000005C9.395999999999995,5.589400000000005,9.390999999999996,5.594400000000005,9.355999999999996,5.553400000000005C9.317999999999996,5.511400000000005,9.391999999999996,5.5064000000000055,9.375999999999996,5.480400000000005C9.359999999999996,5.454400000000005,9.276999999999996,5.443400000000005,9.224999999999996,5.438400000000005C9.172999999999996,5.433400000000005,9.136999999999997,5.376400000000005,9.058999999999996,5.371400000000005C8.980999999999996,5.365400000000005,8.887999999999996,5.381400000000005,8.861999999999997,5.381400000000005C8.835999999999997,5.381400000000005,8.835999999999997,5.417400000000004,8.825999999999997,5.475400000000005C8.814999999999998,5.532400000000005,8.861999999999997,5.547400000000005,8.814999999999998,5.558400000000005C8.767999999999997,5.568400000000005,8.746999999999998,5.573400000000005,8.793999999999997,5.594400000000005C8.840999999999998,5.615400000000005,8.902999999999997,5.698400000000005,8.902999999999997,5.698400000000005S8.902999999999997,5.7454000000000045,8.865999999999996,5.771400000000005C8.829999999999997,5.797400000000005,8.793999999999997,5.823400000000005,8.772999999999996,5.792400000000005C8.751999999999995,5.761400000000005,8.694999999999997,5.766400000000005,8.710999999999997,5.797400000000005C8.725999999999997,5.829400000000005,8.757999999999997,5.844400000000005,8.757999999999997,5.875400000000005C8.757999999999997,5.906400000000005,8.803999999999997,5.984400000000005,8.772999999999998,6.010400000000005C8.741999999999997,6.036400000000005,8.705999999999998,6.016400000000005,8.679999999999998,6.021400000000005S8.627999999999998,5.979400000000005,8.648999999999997,5.969400000000006C8.668999999999997,5.9584000000000055,8.642999999999997,5.880400000000005,8.642999999999997,5.880400000000005S8.580999999999998,5.969400000000006,8.585999999999997,5.922400000000005C8.591999999999997,5.875400000000005,8.559999999999997,5.870400000000005,8.559999999999997,5.833400000000005C8.559999999999997,5.797400000000005,8.528999999999996,5.781400000000005,8.482999999999997,5.792400000000004C8.435999999999996,5.802400000000004,8.378999999999998,5.776400000000004,8.289999999999997,5.760400000000004C8.201999999999998,5.7454000000000045,8.165999999999997,5.735400000000004,8.092999999999998,5.698400000000004C8.019999999999998,5.661400000000004,7.993999999999998,5.687400000000004,7.957999999999998,5.693400000000004C7.9209999999999985,5.698400000000004,7.9369999999999985,5.620400000000004,7.889999999999999,5.610400000000004C7.8439999999999985,5.599400000000004,7.817999999999999,5.620400000000004,7.806999999999999,5.552400000000004C7.796999999999999,5.485400000000004,7.822999999999999,5.469400000000004,7.9369999999999985,5.396400000000004C8.050999999999998,5.323400000000004,8.035999999999998,5.292400000000004,8.123999999999999,5.282400000000004C8.211999999999998,5.271400000000004,8.254,5.292400000000004,8.254,5.266400000000004S8.275,5.1364000000000045,8.275,5.188400000000004S8.38,5.243400000000004,8.332,5.280400000000004C8.286000000000001,5.316400000000003,8.312000000000001,5.321400000000004,8.348,5.321400000000004C8.385000000000002,5.321400000000004,8.452,5.2854000000000045,8.452,5.2854000000000045S8.535,5.249400000000005,8.556,5.280400000000005C8.577,5.311400000000004,8.577,5.342400000000005,8.613999999999999,5.342400000000005S8.728,5.3014000000000046,8.659999999999998,5.264400000000005C8.592999999999998,5.228400000000005,8.550999999999998,5.233400000000005,8.509999999999998,5.191400000000004S8.477999999999998,5.165400000000004,8.431999999999999,5.1764000000000046C8.384999999999998,5.186400000000004,8.384999999999998,5.1604000000000045,8.368999999999998,5.1604000000000045S8.327999999999998,5.171400000000005,8.316999999999998,5.150400000000005C8.306999999999999,5.129400000000005,8.322999999999999,5.124400000000005,8.374999999999998,5.124400000000005C8.426999999999998,5.124400000000005,8.488999999999999,5.139400000000005,8.488999999999999,5.139400000000005S8.550999999999998,5.119400000000005,8.566999999999998,5.113400000000005C8.581999999999999,5.108400000000005,8.665999999999999,5.098400000000005,8.649999999999999,5.0514000000000046C8.633999999999999,5.005400000000004,8.581999999999999,5.005400000000004,8.566999999999998,4.989400000000004S8.597999999999999,4.953400000000005,8.623999999999999,4.942400000000005C8.649999999999999,4.932400000000005,8.722999999999999,4.942400000000005,8.722999999999999,4.942400000000005S8.77,4.9474000000000045,8.77,4.927400000000005S8.758,4.880400000000005,8.79,4.895400000000005S8.79,4.958400000000005,8.837,4.9474000000000045C8.883,4.937400000000005,8.894,4.9474000000000045,8.92,4.9634000000000045C8.946,4.9794000000000045,8.914,5.041400000000005,8.889,5.0514000000000046C8.863,5.061400000000004,8.821,5.082400000000004,8.878,5.087400000000004C8.936,5.093400000000004,8.977,5.093400000000004,8.977,5.093400000000004S9.014000000000001,5.057400000000005,9.029,5.025400000000005C9.044,4.994400000000005,9.071,5.015400000000005,9.091,5.025400000000005C9.112,5.0354000000000045,9.19,5.0514000000000046,9.116999999999999,5.0724000000000045C9.043999999999999,5.093400000000004,9.029,5.119400000000004,9.013,5.145400000000005C8.998,5.171400000000005,8.991999999999999,5.187400000000005,8.925,5.171400000000005C8.857000000000001,5.155400000000005,8.821000000000002,5.161400000000005,8.805000000000001,5.187400000000005C8.790000000000001,5.212400000000005,8.8,5.296400000000005,8.826000000000002,5.2854000000000045C8.852000000000002,5.275400000000005,8.878000000000002,5.275400000000005,8.909000000000002,5.265400000000005C8.940000000000003,5.254400000000005,9.065000000000003,5.275400000000005,9.096000000000002,5.270400000000005C9.127000000000002,5.265400000000005,9.180000000000001,5.3224000000000045,9.195000000000002,5.311400000000005C9.211000000000002,5.301400000000005,9.242000000000003,5.332400000000005,9.273000000000001,5.353400000000005C9.304000000000002,5.374400000000005,9.294000000000002,5.306400000000005,9.350000000000001,5.348400000000005C9.408000000000001,5.3894000000000055,9.376000000000001,5.3894000000000055,9.408000000000001,5.3894000000000055C9.438,5.3894000000000055,9.506000000000002,5.395400000000006,9.506000000000002,5.395400000000006S9.512000000000002,5.343400000000006,9.564000000000002,5.353400000000006C9.616000000000001,5.363400000000006,9.662000000000003,5.4214000000000055,9.657000000000002,5.379400000000006C9.652000000000001,5.337400000000006,9.662000000000003,5.306400000000005,9.621000000000002,5.275400000000006C9.579000000000002,5.244400000000006,9.512000000000002,5.223400000000006,9.501000000000003,5.207400000000006C9.491000000000003,5.192400000000006,9.480000000000002,5.171400000000006,9.496000000000002,5.161400000000006C9.512000000000002,5.151400000000006,9.584000000000001,5.166400000000006,9.626000000000003,5.1924000000000055C9.667000000000003,5.218400000000005,9.704000000000002,5.244400000000005,9.735000000000003,5.223400000000005C9.766000000000004,5.203400000000006,9.803000000000003,5.1924000000000055,9.818000000000003,5.177400000000005C9.833000000000004,5.161400000000005,9.870000000000003,5.114400000000005,9.870000000000003,5.114400000000005S9.714000000000002,5.094400000000006,9.694000000000003,5.0674000000000055C9.672000000000002,5.041400000000006,9.600000000000003,5.005400000000005,9.579000000000002,5.005400000000005S9.501000000000003,5.041400000000005,9.480000000000002,4.989400000000005S9.460000000000003,4.875400000000005,9.438000000000002,4.870400000000005C9.418000000000003,4.8654000000000055,9.200000000000003,4.8334000000000055,9.169000000000002,4.818400000000006C9.138000000000002,4.802400000000006,9.013000000000002,4.766400000000006,8.966000000000003,4.7404000000000055S8.852000000000002,4.677400000000006,8.810000000000002,4.677400000000006C8.769000000000002,4.677400000000006,8.597000000000003,4.698400000000006,8.566000000000003,4.693400000000006C8.535000000000002,4.688400000000006,8.441000000000003,4.703400000000006,8.405000000000003,4.709400000000006C8.368000000000002,4.714400000000006,8.452000000000004,4.781400000000006,8.374000000000002,4.797400000000006C8.296000000000003,4.813400000000006,8.306000000000003,4.823400000000006,8.322000000000003,4.745400000000006C8.337000000000003,4.667400000000006,8.270000000000003,4.646400000000006,8.202000000000004,4.677400000000007C8.135000000000003,4.709400000000007,8.026000000000003,4.729400000000006,8.052000000000003,4.766400000000007C8.078000000000003,4.802400000000007,8.047000000000002,4.829400000000007,8.098000000000003,4.865400000000007C8.150000000000002,4.901400000000007,8.172000000000002,4.9114000000000075,8.238000000000003,4.906400000000008C8.306000000000003,4.901400000000008,8.374000000000002,4.916400000000007,8.374000000000002,4.916400000000007S8.374000000000002,4.979400000000007,8.348000000000003,4.989400000000008C8.322000000000003,4.999400000000008,8.281000000000002,4.999400000000008,8.270000000000003,5.031400000000008C8.260000000000003,5.062400000000007,8.208000000000004,5.077400000000008,8.208000000000004,5.062400000000007S8.234000000000004,4.994400000000008,8.198000000000004,4.968400000000007C8.162000000000004,4.942400000000007,8.151000000000003,4.937400000000007,8.109000000000004,4.963400000000007C8.068000000000003,4.989400000000007,8.063000000000004,4.999400000000007,8.042000000000003,4.958400000000007C8.021000000000003,4.916400000000007,7.958000000000004,4.880400000000007,7.958000000000004,4.880400000000007S7.917000000000003,4.828400000000007,7.886000000000004,4.802400000000007C7.855000000000004,4.776400000000007,7.798000000000004,4.781400000000007,7.792000000000003,4.807400000000007C7.7870000000000035,4.833400000000006,7.802000000000003,4.859400000000006,7.823000000000003,4.906400000000007C7.844000000000003,4.9534000000000065,7.865000000000003,5.0414000000000065,7.828000000000003,5.047400000000007C7.792000000000003,5.052400000000007,7.787000000000003,5.057400000000007,7.750000000000003,5.067400000000006C7.714000000000003,5.0784000000000065,7.698000000000003,5.052400000000007,7.698000000000003,5.010400000000006S7.682000000000003,4.932400000000006,7.693000000000003,4.917400000000006C7.704000000000003,4.901400000000006,7.652000000000003,4.927400000000006,7.600000000000003,4.917400000000006C7.548000000000004,4.907400000000006,7.506000000000003,4.937400000000006,7.558000000000003,4.953400000000006C7.610000000000003,4.969400000000006,7.621000000000003,5.031400000000006,7.574000000000003,5.047400000000006C7.527000000000004,5.062400000000006,7.350000000000003,5.047400000000006,7.293000000000004,5.047400000000006S7.153000000000004,5.062400000000006,7.137000000000004,5.031400000000006C7.121000000000004,5.000400000000006,7.184000000000004,4.979400000000006,7.220000000000004,4.979400000000006C7.256000000000004,4.979400000000006,7.365000000000004,4.984400000000006,7.4070000000000045,4.927400000000007C7.448000000000005,4.870400000000006,7.355000000000005,4.8604000000000065,7.3140000000000045,4.8604000000000065C7.272000000000005,4.8604000000000065,7.240000000000005,4.8444000000000065,7.194000000000004,4.798400000000006C7.147000000000005,4.7514000000000065,7.225000000000004,4.720400000000006,7.215000000000004,4.699400000000006C7.204000000000004,4.678400000000006,7.152000000000005,4.693400000000006,7.106000000000004,4.693400000000006C7.059000000000005,4.693400000000006,6.986000000000004,4.657400000000006,6.986000000000004,4.699400000000006C6.986000000000004,4.741400000000006,7.044000000000004,4.860400000000006,7.007000000000004,4.834400000000006C6.9710000000000045,4.808400000000006,6.976000000000004,4.771400000000006,6.950000000000004,4.7404000000000055C6.924000000000004,4.709400000000006,6.883000000000004,4.714400000000006,6.830000000000004,4.719400000000006C6.7790000000000035,4.725400000000006,6.690000000000004,4.7404000000000055,6.664000000000003,4.735400000000006C6.639000000000003,4.730400000000006,6.659000000000003,4.730400000000006,6.602000000000003,4.704400000000006C6.545000000000003,4.678400000000006,6.519000000000003,4.683400000000006,6.477000000000003,4.657400000000006C6.436000000000003,4.630400000000006,6.472000000000003,4.620400000000006,6.400000000000003,4.615400000000006C6.327000000000003,4.6104000000000065,6.332000000000003,4.651400000000006,6.260000000000003,4.641400000000006C6.187000000000003,4.631400000000006,6.166000000000003,4.646400000000006,6.0930000000000035,4.641400000000006C6.020000000000003,4.636400000000006,5.9840000000000035,4.631400000000006,5.974000000000004,4.667400000000006C5.964000000000004,4.703400000000006,5.942000000000004,4.766400000000006,5.911000000000004,4.766400000000006C5.880000000000004,4.766400000000006,5.844000000000004,4.802400000000006,5.942000000000004,4.807400000000007C6.041000000000004,4.813400000000007,5.9840000000000035,4.859400000000006,6.072000000000004,4.854400000000006C6.161000000000004,4.849400000000006,6.239000000000003,4.849400000000006,6.260000000000003,4.807400000000007C6.280000000000003,4.766400000000006,6.296000000000003,4.766400000000006,6.306000000000004,4.781400000000007C6.316000000000003,4.797400000000007,6.394000000000004,4.890400000000007,6.394000000000004,4.890400000000007S6.447000000000004,4.932400000000007,6.4680000000000035,4.942400000000006C6.488000000000003,4.9534000000000065,6.447000000000004,4.999400000000007,6.405000000000004,4.973400000000006C6.364000000000003,4.947400000000006,6.286000000000004,4.9534000000000065,6.254000000000004,4.927400000000006C6.223000000000004,4.901400000000006,6.083000000000004,4.901400000000006,6.046000000000004,4.906400000000006C6.010000000000004,4.911400000000006,5.948000000000004,4.891400000000006,5.927000000000004,4.891400000000006C5.906000000000004,4.891400000000006,5.838000000000004,4.943400000000006,5.838000000000004,4.943400000000006S5.812000000000004,4.901400000000006,5.797000000000003,4.880400000000006C5.782000000000004,4.859400000000006,5.756000000000003,4.901400000000006,5.735000000000003,4.906400000000006C5.714000000000003,4.911400000000006,5.652000000000003,4.864400000000006,5.589000000000003,4.885400000000006C5.527000000000003,4.906400000000006,5.548000000000003,4.927400000000006,5.459000000000003,4.9214000000000055S5.350000000000003,4.901400000000006,5.3190000000000035,4.906400000000006C5.288000000000004,4.911400000000006,5.288000000000004,4.911400000000006,5.288000000000004,4.911400000000006S5.293000000000004,4.932400000000006,5.257000000000004,4.953400000000006C5.220000000000004,4.973400000000005,5.194000000000004,4.999400000000006,5.168000000000004,4.968400000000005C5.142000000000004,4.937400000000006,5.127000000000003,4.937400000000006,5.111000000000003,4.932400000000006C5.095000000000003,4.927400000000006,5.064000000000004,4.901400000000006,4.997000000000003,4.916400000000006C4.929000000000004,4.932400000000006,4.825000000000004,4.895400000000006,4.805000000000003,4.895400000000006C4.789000000000003,4.895400000000006,4.680000000000003,4.8894000000000055,4.608000000000003,4.882400000000006C5.4520000000000035,3.965400000000006,6.658000000000003,3.386400000000006,8.000000000000004,3.386400000000006C8.851000000000003,3.386400000000006,9.646000000000004,3.622400000000006,10.332000000000004,4.025400000000006C10.285000000000004,4.0544000000000056,10.204000000000004,4.049400000000006,10.176000000000004,4.035400000000005C10.145000000000003,4.017400000000006,10.113000000000003,4.003400000000005,9.986000000000004,4.010400000000005C9.860000000000005,4.017400000000005,9.720000000000004,4.0594000000000054,9.748000000000005,4.101400000000005C9.777000000000005,4.142400000000006,9.692000000000005,4.167400000000005,9.670000000000005,4.146400000000005C9.648000000000005,4.125400000000005,9.546000000000005,4.170400000000005,9.552000000000005,4.212400000000005C9.559000000000005,4.253400000000005,9.537000000000004,4.302400000000005,9.482000000000005,4.291400000000005C9.429000000000004,4.281400000000005,9.391000000000005,4.315400000000005,9.388000000000005,4.350400000000005C9.385000000000005,4.385400000000005,9.264000000000005,4.409400000000005,9.255000000000006,4.409400000000005C9.245000000000006,4.409400000000005,9.090000000000007,4.4054000000000055,9.147000000000006,4.447400000000005C9.186000000000005,4.4744000000000055,9.207000000000006,4.457400000000005,9.255000000000006,4.467400000000005C9.302000000000007,4.478400000000005,9.340000000000007,4.554400000000005,9.366000000000007,4.565400000000005C9.390000000000006,4.575400000000005,9.426000000000007,4.565400000000005,9.441000000000006,4.544400000000005C9.457000000000006,4.523400000000005,9.479000000000006,4.450400000000005,9.479000000000006,4.450400000000005S9.479000000000006,4.5194000000000045,9.518000000000006,4.533400000000005C9.556000000000006,4.547400000000005,9.650000000000006,4.523400000000005,9.676000000000005,4.5274000000000045C9.702000000000005,4.530400000000005,9.851000000000006,4.5514000000000046,9.891000000000005,4.571400000000004C9.933000000000005,4.592400000000004,10.034000000000006,4.606400000000004,10.062000000000005,4.651400000000004C10.091000000000005,4.696400000000004,10.094000000000005,4.852400000000004,10.110000000000005,4.869400000000004C10.126000000000005,4.887400000000004,10.180000000000005,4.8144000000000045,10.192000000000005,4.797400000000004C10.204000000000006,4.779400000000004,10.271000000000006,4.789400000000004,10.294000000000006,4.813400000000004C10.316000000000006,4.8384000000000045,10.366000000000005,4.897400000000004,10.364000000000006,4.921400000000004C10.360000000000007,4.946400000000004,10.350000000000007,4.983400000000004,10.332000000000006,4.970400000000004C10.312000000000006,4.956400000000004,10.281000000000006,4.960400000000004,10.293000000000006,4.932400000000004C10.306000000000006,4.904400000000004,10.312000000000006,4.845400000000004,10.287000000000006,4.845400000000004C10.262000000000006,4.845400000000004,10.240000000000006,4.845400000000004,10.240000000000006,4.845400000000004S10.192000000000005,4.831400000000004,10.160000000000005,4.883400000000004S10.154000000000005,4.9874000000000045,10.176000000000005,4.9874000000000045S10.250000000000005,4.9874000000000045,10.250000000000005,5.001400000000005C10.250000000000005,5.015400000000005,10.195000000000006,5.0564000000000044,10.198000000000006,5.081400000000005C10.202000000000005,5.105400000000005,10.242000000000006,5.188400000000005,10.256000000000006,5.2054000000000045C10.268000000000006,5.223400000000004,10.335000000000006,5.240400000000005,10.354000000000006,5.244400000000004C10.373000000000006,5.247400000000004,10.309000000000006,5.251400000000004,10.326000000000006,5.275400000000004C10.342000000000006,5.299400000000004,10.366000000000005,5.358400000000004,10.401000000000005,5.372400000000004C10.436000000000005,5.3864000000000045,10.534000000000006,5.448400000000004,10.546000000000005,5.476400000000004C10.559000000000005,5.5034000000000045,10.635000000000005,5.4554000000000045,10.651000000000005,5.451400000000004C10.667000000000005,5.448400000000004,10.664000000000005,5.524400000000004,10.708000000000006,5.528400000000004C10.752000000000006,5.531400000000004,10.768000000000006,5.521400000000004,10.806000000000006,5.489400000000004S10.835000000000006,5.417400000000004,10.838000000000006,5.385400000000004C10.842000000000006,5.3544000000000045,10.838000000000006,5.3304000000000045,10.880000000000006,5.340400000000004C10.921000000000006,5.351400000000004,10.943000000000007,5.333400000000005,10.940000000000007,5.299400000000004C10.936000000000007,5.264400000000004,10.902000000000006,5.222400000000004,10.968000000000007,5.212400000000004C11.034000000000008,5.201400000000004,11.069000000000008,5.157400000000004,11.110000000000007,5.157400000000004C11.152000000000006,5.157400000000004,11.266000000000007,5.174400000000005,11.278000000000006,5.157400000000004C11.291000000000006,5.139400000000005,11.345000000000006,5.059400000000005,11.380000000000006,5.0564000000000044C11.406000000000006,5.053400000000004,11.469000000000007,5.048400000000004,11.534000000000006,5.039400000000004C12.166000000000006,5.793400000000004,12.558000000000007,6.7534000000000045,12.603000000000005,7.8014000000000046C12.556000000000004,7.865400000000005,12.598000000000004,7.923400000000004,12.611000000000004,7.965400000000004C12.612000000000004,7.977400000000004,12.613000000000005,7.988400000000004,12.613000000000005,8.000400000000004C12.613000000000005,8.054400000000005,12.607000000000005,8.107400000000004,12.605000000000006,8.161400000000004C12.604000000000006,8.162400000000003,12.604000000000006,8.163400000000005,12.604000000000006,8.164400000000004ZM8.718,6.434399999999997C8.692,6.4393999999999965,8.65,6.413399999999997,8.65,6.376399999999997S8.614,6.444399999999996,8.634,6.475399999999997C8.655000000000001,6.506399999999997,8.592,6.5433999999999966,8.572000000000001,6.5433999999999966S8.536000000000001,6.496399999999997,8.541,6.450399999999997C8.546000000000001,6.403399999999997,8.51,6.361399999999996,8.452,6.366399999999997C8.395,6.372399999999997,8.369,6.4183999999999966,8.349,6.434399999999997C8.328,6.450399999999997,8.328,6.538399999999997,8.333,6.559399999999997S8.338000000000001,6.653399999999997,8.286,6.647399999999997C8.238999999999999,6.642399999999997,8.25,6.554399999999997,8.254999999999999,6.522399999999997C8.26,6.491399999999997,8.238999999999999,6.413399999999997,8.26,6.372399999999996C8.282,6.3303999999999965,8.343,6.315399999999996,8.385,6.310399999999996S8.515,6.336399999999996,8.53,6.330399999999996C8.546,6.325399999999996,8.619,6.325399999999996,8.655,6.330399999999996C8.692,6.3353999999999955,8.742999999999999,6.4283999999999955,8.718,6.434399999999996ZM8.811,6.450399999999997C8.827,6.460399999999996,8.936,6.434399999999997,8.957,6.460399999999996C8.977,6.486399999999996,8.935,6.491399999999996,8.884,6.512399999999996C8.832,6.533399999999996,8.816,6.528399999999996,8.795,6.554399999999996S8.707,6.590399999999995,8.676,6.621399999999996C8.644,6.652399999999996,8.589,6.671399999999996,8.577,6.647399999999996C8.561,6.616399999999996,8.582,6.631399999999996,8.587,6.616399999999996C8.592,6.600399999999996,8.685,6.5643999999999965,8.685,6.5643999999999965S8.796000000000001,6.4393999999999965,8.811,6.450399999999997ZM8.395,6.268399999999996C8.379999999999999,6.273399999999996,8.323,6.258399999999996,8.275,6.258399999999996C8.229000000000001,6.258399999999996,8.239,6.226399999999996,8.218,6.232399999999997C8.198,6.2373999999999965,8.151,6.248399999999997,8.119,6.263399999999996C8.088,6.279399999999996,8.036,6.275399999999996,8.036,6.247399999999996C8.036,6.206399999999996,8.057,6.216399999999997,8.125,6.190399999999996C8.192,6.164399999999996,8.265,6.091399999999996,8.296,6.122399999999996C8.327,6.154399999999996,8.385,6.190399999999996,8.421,6.195399999999997C8.458,6.201399999999997,8.411,6.263399999999996,8.395,6.268399999999997ZM7.8629999999999995,4.656399999999996C7.832,4.666399999999996,7.725,4.711399999999996,7.734999999999999,4.735399999999996C7.738999999999999,4.744399999999996,7.765999999999999,4.763399999999995,7.810999999999999,4.756399999999996C7.855999999999999,4.749399999999996,7.920999999999999,4.7423999999999955,7.952999999999999,4.739399999999995C7.983999999999999,4.735399999999996,7.991,4.683399999999995,7.956999999999999,4.680399999999995C7.921999999999999,4.676399999999996,7.893999999999999,4.645399999999995,7.862999999999999,4.656399999999995ZM7.478999999999999,4.698399999999996C7.453999999999999,4.708399999999996,7.380999999999999,4.680399999999996,7.342999999999999,4.705399999999996C7.318999999999999,4.720399999999995,7.332999999999999,4.770399999999996,7.370999999999999,4.7743999999999955C7.408999999999999,4.777399999999996,7.474999999999999,4.7503999999999955,7.481999999999998,4.770399999999996C7.488999999999998,4.791399999999996,7.512999999999998,4.885399999999996,7.574999999999998,4.854399999999996C7.637999999999998,4.822399999999996,7.633999999999999,4.795399999999995,7.650999999999998,4.791399999999996C7.668999999999998,4.788399999999996,7.647999999999998,4.712399999999996,7.619999999999998,4.6943999999999955C7.592999999999998,4.677399999999995,7.502999999999998,4.687399999999996,7.478999999999998,4.698399999999995ZM7.353999999999999,4.404399999999996C7.360999999999999,4.421399999999997,7.350999999999999,4.435399999999996,7.398999999999999,4.442399999999997C7.446999999999999,4.449399999999996,7.467999999999999,4.456399999999997,7.4959999999999996,4.456399999999997C7.523999999999999,4.456399999999997,7.513,4.4103999999999965,7.489,4.380399999999997C7.465,4.348399999999997,7.4719999999999995,4.352399999999998,7.409,4.334399999999997C7.3469999999999995,4.317399999999997,7.285,4.317399999999997,7.242999999999999,4.320399999999997C7.201,4.324399999999996,7.156,4.3143999999999965,7.145999999999999,4.3623999999999965C7.140999999999999,4.387399999999997,7.173999999999999,4.407399999999996,7.214999999999999,4.407399999999996S7.346999999999999,4.3863999999999965,7.353999999999999,4.404399999999996ZM7.443999999999999,4.594399999999997C7.461999999999999,4.632399999999997,7.461999999999999,4.615399999999997,7.509999999999999,4.619399999999997C7.557999999999999,4.622399999999997,7.595999999999999,4.570399999999997,7.599999999999999,4.553399999999997C7.603999999999998,4.536399999999997,7.575999999999999,4.501399999999998,7.509999999999999,4.508399999999997C7.443999999999999,4.515399999999997,7.2429999999999986,4.4983999999999975,7.215999999999999,4.5223999999999975C7.188999999999999,4.545399999999997,7.215999999999999,4.6153999999999975,7.204999999999999,4.622399999999997C7.194999999999999,4.629399999999997,7.208999999999999,4.660399999999997,7.235999999999999,4.653399999999997C7.2639999999999985,4.646399999999997,7.277999999999999,4.5803999999999965,7.298999999999999,4.5803999999999965C7.3199999999999985,4.581399999999997,7.426999999999999,4.5563999999999965,7.443999999999998,4.594399999999997ZM6.791999999999999,4.452399999999996C6.812999999999999,4.469399999999997,6.865999999999999,4.4553999999999965,6.861999999999999,4.438399999999996C6.858,4.421399999999996,6.882999999999999,4.351399999999996,6.840999999999999,4.348399999999996C6.799999999999999,4.345399999999996,6.741,4.3863999999999965,6.677999999999999,4.407399999999996C6.637999999999999,4.420399999999996,6.646999999999999,4.459399999999996,6.674999999999999,4.459399999999996S6.771999999999999,4.435399999999996,6.791999999999999,4.452399999999996ZM7.086999999999999,4.514399999999997C7.051999999999999,4.532399999999996,7.041999999999999,4.542399999999996,7.010999999999999,4.5353999999999965C6.9799999999999995,4.528399999999997,6.9799999999999995,4.473399999999996,6.9239999999999995,4.483399999999997C6.869,4.494399999999997,6.858,4.525399999999997,6.840999999999999,4.539399999999997S6.786,4.563399999999997,6.771999999999999,4.556399999999997C6.757999999999999,4.549399999999998,6.677999999999999,4.504399999999998,6.677999999999999,4.504399999999998S6.511999999999999,4.497399999999998,6.504999999999999,4.476399999999998C6.497999999999999,4.456399999999999,6.470999999999999,4.421399999999998,6.393999999999999,4.428399999999998S6.185999999999999,4.480399999999998,6.1659999999999995,4.480399999999998C6.145,4.480399999999998,6.1899999999999995,4.5223999999999975,6.162,4.5223999999999975C6.134,4.5223999999999975,6.1,4.518399999999998,6.09,4.549399999999998C6.082,4.570399999999998,6.1209999999999996,4.570399999999998,6.165,4.570399999999998C6.21,4.570399999999998,6.283,4.570399999999998,6.304,4.560399999999998C6.325,4.549399999999998,6.429,4.525399999999998,6.425000000000001,4.556399999999998C6.422000000000001,4.588399999999998,6.4670000000000005,4.636399999999998,6.4910000000000005,4.629399999999999C6.515000000000001,4.622399999999999,6.564000000000001,4.577399999999999,6.588000000000001,4.5943999999999985C6.612000000000001,4.612399999999998,6.6160000000000005,4.653399999999999,6.640000000000001,4.664399999999999C6.664000000000001,4.674399999999999,6.73,4.674399999999999,6.7620000000000005,4.664399999999999C6.792000000000001,4.653399999999999,6.8790000000000004,4.653399999999999,6.917000000000001,4.660399999999999C6.955000000000001,4.667399999999999,7.066000000000001,4.688399999999999,7.077000000000001,4.667399999999999C7.087000000000001,4.646399999999999,7.118000000000001,4.643399999999999,7.122000000000001,4.622399999999999S7.142,4.536399999999999,7.142,4.536399999999999S7.122000000000001,4.497399999999999,7.087000000000001,4.514399999999998ZM8.841,8.097399999999997C8.793,8.105399999999996,8.805,8.198399999999998,8.862,8.181399999999996C8.919,8.164399999999997,8.888,8.088399999999996,8.841,8.097399999999997ZM9.293,7.973399999999997C9.251,7.963399999999997,9.205,7.973399999999997,9.173,7.978399999999997C9.142,7.983399999999997,9.054,8.061399999999997,9.054,8.061399999999997S9.111,8.072399999999996,9.147,8.072399999999996C9.184000000000001,8.072399999999996,9.205,8.092399999999996,9.235,8.108399999999996C9.267,8.124399999999996,9.324,8.087399999999995,9.344,8.087399999999995C9.365,8.087399999999995,9.391,8.149399999999995,9.397,8.082399999999994C9.402000000000001,8.014399999999995,9.335,7.983399999999994,9.293000000000001,7.9733999999999945ZM7.844999999999999,4.6043999999999965C7.8279999999999985,4.563399999999996,7.741999999999999,4.549399999999997,7.723999999999998,4.590399999999996C7.708999999999999,4.627399999999996,7.862999999999999,4.646399999999996,7.844999999999999,4.6043999999999965ZM8.835999999999999,7.718399999999996C8.892999999999999,7.708399999999997,8.860999999999999,7.6603999999999965,8.814999999999998,7.666399999999997C8.766999999999998,7.671399999999997,8.777999999999997,7.728399999999997,8.835999999999999,7.718399999999996ZM9.527,8.039399999999997C9.479,8.048399999999997,9.489999999999998,8.140399999999998,9.546999999999999,8.124399999999998C9.604999999999999,8.107399999999998,9.573999999999998,8.031399999999998,9.527,8.039399999999997ZM8.898,7.884399999999997C8.862,7.889399999999997,8.783999999999999,7.848399999999997,8.741999999999999,7.811399999999996C8.700999999999999,7.775399999999997,8.623,7.775399999999997,8.591,7.775399999999997C8.561,7.775399999999997,8.434999999999999,7.811399999999996,8.434999999999999,7.811399999999996C8.429999999999998,7.863399999999996,8.482,7.848399999999996,8.544999999999998,7.848399999999996S8.715999999999998,7.837399999999996,8.735999999999999,7.863399999999996C8.757,7.889399999999996,8.850999999999999,7.931399999999996,8.876999999999999,7.952399999999996C8.902999999999999,7.973399999999996,8.985999999999999,7.978399999999996,8.991,7.957399999999996S8.934,7.879399999999996,8.898,7.884399999999996ZM8.278,4.566399999999996C8.226,4.562399999999997,8.16,4.562399999999997,8.119,4.566399999999996C8.077,4.569399999999996,8.046,4.538399999999997,8.015,4.520399999999996C7.984000000000001,4.503399999999996,7.914000000000001,4.448399999999996,7.873,4.441399999999996C7.832,4.434399999999997,7.839,4.434399999999997,7.752000000000001,4.413399999999997C7.708000000000001,4.4023999999999965,7.634,4.389399999999997,7.634,4.379399999999997C7.634,4.368399999999997,7.614000000000001,4.427399999999997,7.652,4.445399999999997C7.69,4.462399999999997,7.752,4.493399999999997,7.797,4.510399999999997C7.842,4.528399999999997,7.928,4.531399999999997,7.9559999999999995,4.566399999999997C7.983999999999999,4.600399999999997,8.078,4.628399999999997,8.078,4.628399999999997L8.187999999999999,4.6393999999999975C8.187999999999999,4.6393999999999975,8.264999999999999,4.622399999999997,8.344,4.628399999999997C8.424,4.635399999999997,8.542,4.646399999999997,8.607999999999999,4.642399999999998C8.672999999999998,4.6393999999999975,8.684,4.618399999999998,8.690999999999999,4.604399999999997C8.697999999999999,4.590399999999997,8.569999999999999,4.563399999999997,8.537999999999998,4.566399999999997C8.508,4.569399999999997,8.329999999999998,4.569399999999997,8.277999999999999,4.566399999999997ZM8.472000000000001,5.363399999999996C8.458000000000002,5.378399999999996,8.534,5.401399999999996,8.548000000000002,5.380399999999996C8.562000000000001,5.360399999999997,8.507000000000001,5.325399999999997,8.472000000000001,5.363399999999996ZM8.705000000000002,5.435399999999996C8.739000000000003,5.421399999999996,8.722000000000001,5.380399999999996,8.673000000000002,5.394399999999996C8.618000000000002,5.410399999999996,8.670000000000002,5.449399999999995,8.705000000000002,5.435399999999996Z" transform=""/>
</svg>