<?xml version="1.0" encoding="UTF-8" standalone="no"?>
<!DOCTYPE svg PUBLIC "-//W3C//DTD SVG 1.0//EN"
 "http://www.w3.org/TR/2001/REC-SVG-20010904/DTD/svg10.dtd" [
 <!ATTLIST svg xmlns:xlink CDATA #FIXED "http://www.w3.org/1999/xlink">
]>
<!-- Generated by Graphviz version 2.16.1 (Fri Mar  7 19:17:40 UTC 2008)
     For user: (woody) Woody Peterson -->
<!-- Title: controllers_diagram Pages: 1 -->
<svg width="810pt" height="850pt"
 viewBox="0.00 0.00 810.00 850.00" xmlns="http://www.w3.org/2000/svg" xmlns:xlink="http://www.w3.org/1999/xlink">
<g id="graph0" class="graph" transform="scale(1 1) rotate(0) translate(4 846)">
<title>controllers_diagram</title>
<polygon style="fill:white;stroke:white;" points="-4,4 -4,-846 806,-846 806,4 -4,4"/>
<!-- _diagram_info -->
<g id="node1" class="node"><title>_diagram_info</title>
<text text-anchor="start" x="8.5" y="-67.8" style="font-family:Times New Roman;font-size:13.00;">Controllers diagram</text>
<text text-anchor="start" x="8.5" y="-52.8" style="font-family:Times New Roman;font-size:13.00;">Date: Nov 21 2010 &#45; 02:04</text>
<text text-anchor="start" x="8.5" y="-37.8" style="font-family:Times New Roman;font-size:13.00;">Migration version: 20101120231242</text>
<text text-anchor="start" x="8.5" y="-22.8" style="font-family:Times New Roman;font-size:13.00;">Generated by RailRoady 0.11.2</text>
<text text-anchor="start" x="8.5" y="-7.8" style="font-family:Times New Roman;font-size:13.00;">http://railroady.prestonlee.com</text>
</g>
<!-- ApplicationController -->
<g id="node2" class="node"><title>ApplicationController</title>
<polyline style="fill:none;stroke:black;" points="431,-0 614,-0 "/>
<path style="fill:none;stroke:black;" d="M614,-0C620,-0 626,-6 626,-12"/>
<polyline style="fill:none;stroke:black;" points="626,-12 626,-169 "/>
<path style="fill:none;stroke:black;" d="M626,-169C626,-175 620,-181 614,-181"/>
<polyline style="fill:none;stroke:black;" points="614,-181 431,-181 "/>
<path style="fill:none;stroke:black;" d="M431,-181C425,-181 419,-175 419,-169"/>
<polyline style="fill:none;stroke:black;" points="419,-169 419,-12 "/>
<path style="fill:none;stroke:black;" d="M419,-12C419,-6 425,-0 431,-0"/>
<text text-anchor="middle" x="522" y="-163.65" style="font-family:Times New Roman;font-size:14.00;">ApplicationController</text>
<polyline style="fill:none;stroke:black;" points="419,-156 626,-156 "/>
<text text-anchor="start" x="426.75" y="-139.4" style="font-family:Times New Roman;font-size:14.00;">_one_time_conditions_valid_30?</text>
<text text-anchor="start" x="426.75" y="-122.9" style="font-family:Times New Roman;font-size:14.00;">_one_time_conditions_valid_32?</text>
<text text-anchor="start" x="426.75" y="-106.4" style="font-family:Times New Roman;font-size:14.00;">authenticate</text>
<text text-anchor="start" x="426.75" y="-89.9" style="font-family:Times New Roman;font-size:14.00;">current_user_owns?</text>
<polyline style="fill:none;stroke:black;" points="419,-82 626,-82 "/>
<polyline style="fill:none;stroke:black;" points="419,-58 626,-58 "/>
<text text-anchor="start" x="426.625" y="-41.15" style="font-family:Times New Roman;font-size:14.00;">_layout</text>
<text text-anchor="start" x="426.625" y="-24.65" style="font-family:Times New Roman;font-size:14.00;">_run_process_action_callbacks</text>
<text text-anchor="start" x="426.625" y="-8.15" style="font-family:Times New Roman;font-size:14.00;">find_list</text>
</g>
<!-- FoodsController -->
<g id="node3" class="node"><title>FoodsController</title>
<polyline style="fill:none;stroke:black;" points="211,-506 394,-506 "/>
<path style="fill:none;stroke:black;" d="M394,-506C400,-506 406,-512 406,-518"/>
<polyline style="fill:none;stroke:black;" points="406,-518 406,-791 "/>
<path style="fill:none;stroke:black;" d="M406,-791C406,-797 400,-803 394,-803"/>
<polyline style="fill:none;stroke:black;" points="394,-803 211,-803 "/>
<path style="fill:none;stroke:black;" d="M211,-803C205,-803 199,-797 199,-791"/>
<polyline style="fill:none;stroke:black;" points="199,-791 199,-518 "/>
<path style="fill:none;stroke:black;" d="M199,-518C199,-512 205,-506 211,-506"/>
<text text-anchor="middle" x="302" y="-785.65" style="font-family:Times New Roman;font-size:14.00;">FoodsController</text>
<polyline style="fill:none;stroke:black;" points="199,-778 406,-778 "/>
<text text-anchor="start" x="206.75" y="-761.15" style="font-family:Times New Roman;font-size:14.00;">_one_time_conditions_valid_34?</text>
<text text-anchor="start" x="206.75" y="-744.65" style="font-family:Times New Roman;font-size:14.00;">_one_time_conditions_valid_38?</text>
<text text-anchor="start" x="206.75" y="-728.15" style="font-family:Times New Roman;font-size:14.00;">create</text>
<text text-anchor="start" x="206.75" y="-711.65" style="font-family:Times New Roman;font-size:14.00;">destroy</text>
<text text-anchor="start" x="206.75" y="-695.15" style="font-family:Times New Roman;font-size:14.00;">edit</text>
<text text-anchor="start" x="206.75" y="-678.65" style="font-family:Times New Roman;font-size:14.00;">index</text>
<text text-anchor="start" x="206.75" y="-662.15" style="font-family:Times New Roman;font-size:14.00;">new</text>
<text text-anchor="start" x="206.75" y="-645.65" style="font-family:Times New Roman;font-size:14.00;">search</text>
<text text-anchor="start" x="206.75" y="-629.15" style="font-family:Times New Roman;font-size:14.00;">search_for_select</text>
<text text-anchor="start" x="206.75" y="-612.65" style="font-family:Times New Roman;font-size:14.00;">show</text>
<text text-anchor="start" x="206.75" y="-596.15" style="font-family:Times New Roman;font-size:14.00;">update</text>
<polyline style="fill:none;stroke:black;" points="199,-588 406,-588 "/>
<polyline style="fill:none;stroke:black;" points="199,-564 406,-564 "/>
<text text-anchor="start" x="206.625" y="-547.15" style="font-family:Times New Roman;font-size:14.00;">_layout</text>
<text text-anchor="start" x="206.625" y="-530.65" style="font-family:Times New Roman;font-size:14.00;">_run_process_action_callbacks</text>
<text text-anchor="start" x="206.625" y="-514.15" style="font-family:Times New Roman;font-size:14.00;">find_food</text>
</g>
<!-- ListItemsController -->
<g id="node4" class="node"><title>ListItemsController</title>
<polyline style="fill:none;stroke:black;" points="453,-594 558,-594 "/>
<path style="fill:none;stroke:black;" d="M558,-594C564,-594 570,-600 570,-606"/>
<polyline style="fill:none;stroke:black;" points="570,-606 570,-681 "/>
<path style="fill:none;stroke:black;" d="M570,-681C570,-687 564,-693 558,-693"/>
<polyline style="fill:none;stroke:black;" points="558,-693 453,-693 "/>
<path style="fill:none;stroke:black;" d="M453,-693C447,-693 441,-687 441,-681"/>
<polyline style="fill:none;stroke:black;" points="441,-681 441,-606 "/>
<path style="fill:none;stroke:black;" d="M441,-606C441,-600 447,-594 453,-594"/>
<text text-anchor="middle" x="505" y="-675.65" style="font-family:Times New Roman;font-size:14.00;">ListItemsController</text>
<polyline style="fill:none;stroke:black;" points="441,-668 570,-668 "/>
<text text-anchor="start" x="448.75" y="-650.65" style="font-family:Times New Roman;font-size:14.00;">destroy</text>
<polyline style="fill:none;stroke:black;" points="441,-643 570,-643 "/>
<polyline style="fill:none;stroke:black;" points="441,-619 570,-619 "/>
<text text-anchor="start" x="448.5" y="-601.65" style="font-family:Times New Roman;font-size:14.00;">_layout</text>
</g>
<!-- ListsController -->
<g id="node5" class="node"><title>ListsController</title>
<polyline style="fill:none;stroke:black;" points="79,-133 158,-133 "/>
<path style="fill:none;stroke:black;" d="M158,-133C164,-133 170,-139 170,-145"/>
<polyline style="fill:none;stroke:black;" points="170,-145 170,-269 "/>
<path style="fill:none;stroke:black;" d="M170,-269C170,-275 164,-281 158,-281"/>
<polyline style="fill:none;stroke:black;" points="158,-281 79,-281 "/>
<path style="fill:none;stroke:black;" d="M79,-281C73,-281 67,-275 67,-269"/>
<polyline style="fill:none;stroke:black;" points="67,-269 67,-145 "/>
<path style="fill:none;stroke:black;" d="M67,-145C67,-139 73,-133 79,-133"/>
<text text-anchor="middle" x="118" y="-263.65" style="font-family:Times New Roman;font-size:14.00;">ListsController</text>
<polyline style="fill:none;stroke:black;" points="67,-256 170,-256 "/>
<text text-anchor="start" x="74.375" y="-239.4" style="font-family:Times New Roman;font-size:14.00;">add</text>
<text text-anchor="start" x="74.375" y="-222.9" style="font-family:Times New Roman;font-size:14.00;">destroy</text>
<text text-anchor="start" x="74.375" y="-206.4" style="font-family:Times New Roman;font-size:14.00;">remove</text>
<text text-anchor="start" x="74.375" y="-189.9" style="font-family:Times New Roman;font-size:14.00;">show</text>
<polyline style="fill:none;stroke:black;" points="67,-182 170,-182 "/>
<polyline style="fill:none;stroke:black;" points="67,-158 170,-158 "/>
<text text-anchor="start" x="74.5" y="-140.65" style="font-family:Times New Roman;font-size:14.00;">_layout</text>
</g>
<!-- PhotosController -->
<g id="node6" class="node"><title>PhotosController</title>
<polyline style="fill:none;stroke:black;" points="233,-1 325,-1 "/>
<path style="fill:none;stroke:black;" d="M325,-1C331,-1 337,-7 337,-13"/>
<polyline style="fill:none;stroke:black;" points="337,-13 337,-87 "/>
<path style="fill:none;stroke:black;" d="M337,-87C337,-93 331,-99 325,-99"/>
<polyline style="fill:none;stroke:black;" points="325,-99 233,-99 "/>
<path style="fill:none;stroke:black;" d="M233,-99C227,-99 221,-93 221,-87"/>
<polyline style="fill:none;stroke:black;" points="221,-87 221,-13 "/>
<path style="fill:none;stroke:black;" d="M221,-13C221,-7 227,-1 233,-1"/>
<text text-anchor="middle" x="279" y="-81.65" style="font-family:Times New Roman;font-size:14.00;">PhotosController</text>
<polyline style="fill:none;stroke:black;" points="221,-74 337,-74 "/>
<polyline style="fill:none;stroke:black;" points="221,-50 337,-50 "/>
<polyline style="fill:none;stroke:black;" points="221,-26 337,-26 "/>
<text text-anchor="start" x="229" y="-8.65" style="font-family:Times New Roman;font-size:14.00;">_layout</text>
</g>
<!-- ReceiptsController -->
<g id="node7" class="node"><title>ReceiptsController</title>
<polyline style="fill:none;stroke:black;" points="211,-110 394,-110 "/>
<path style="fill:none;stroke:black;" d="M394,-110C400,-110 406,-116 406,-122"/>
<polyline style="fill:none;stroke:black;" points="406,-122 406,-477 "/>
<path style="fill:none;stroke:black;" d="M406,-477C406,-483 400,-489 394,-489"/>
<polyline style="fill:none;stroke:black;" points="394,-489 211,-489 "/>
<path style="fill:none;stroke:black;" d="M211,-489C205,-489 199,-483 199,-477"/>
<polyline style="fill:none;stroke:black;" points="199,-477 199,-122 "/>
<path style="fill:none;stroke:black;" d="M199,-122C199,-116 205,-110 211,-110"/>
<text text-anchor="middle" x="302" y="-471.65" style="font-family:Times New Roman;font-size:14.00;">ReceiptsController</text>
<polyline style="fill:none;stroke:black;" points="199,-464 406,-464 "/>
<text text-anchor="start" x="206.75" y="-447.4" style="font-family:Times New Roman;font-size:14.00;">_one_time_conditions_valid_42?</text>
<text text-anchor="start" x="206.75" y="-430.9" style="font-family:Times New Roman;font-size:14.00;">_one_time_conditions_valid_46?</text>
<text text-anchor="start" x="206.75" y="-414.4" style="font-family:Times New Roman;font-size:14.00;">_one_time_conditions_valid_48?</text>
<text text-anchor="start" x="206.75" y="-397.9" style="font-family:Times New Roman;font-size:14.00;">_one_time_conditions_valid_52?</text>
<text text-anchor="start" x="206.75" y="-381.4" style="font-family:Times New Roman;font-size:14.00;">_one_time_conditions_valid_56?</text>
<text text-anchor="start" x="206.75" y="-364.9" style="font-family:Times New Roman;font-size:14.00;">create</text>
<text text-anchor="start" x="206.75" y="-348.4" style="font-family:Times New Roman;font-size:14.00;">destroy</text>
<text text-anchor="start" x="206.75" y="-331.9" style="font-family:Times New Roman;font-size:14.00;">edit</text>
<text text-anchor="start" x="206.75" y="-315.4" style="font-family:Times New Roman;font-size:14.00;">index</text>
<text text-anchor="start" x="206.75" y="-298.9" style="font-family:Times New Roman;font-size:14.00;">new</text>
<text text-anchor="start" x="206.75" y="-282.4" style="font-family:Times New Roman;font-size:14.00;">show</text>
<text text-anchor="start" x="206.75" y="-265.9" style="font-family:Times New Roman;font-size:14.00;">update</text>
<polyline style="fill:none;stroke:black;" points="199,-258 406,-258 "/>
<polyline style="fill:none;stroke:black;" points="199,-234 406,-234 "/>
<text text-anchor="start" x="206.625" y="-217.15" style="font-family:Times New Roman;font-size:14.00;">_layout</text>
<text text-anchor="start" x="206.625" y="-200.65" style="font-family:Times New Roman;font-size:14.00;">_run_process_action_callbacks</text>
<text text-anchor="start" x="206.625" y="-184.15" style="font-family:Times New Roman;font-size:14.00;">find_foods</text>
<text text-anchor="start" x="206.625" y="-167.65" style="font-family:Times New Roman;font-size:14.00;">find_foods_on_error</text>
<text text-anchor="start" x="206.625" y="-151.15" style="font-family:Times New Roman;font-size:14.00;">find_receipt</text>
<text text-anchor="start" x="206.625" y="-134.65" style="font-family:Times New Roman;font-size:14.00;">find_receipt_items</text>
<text text-anchor="start" x="206.625" y="-118.15" style="font-family:Times New Roman;font-size:14.00;">find_stores</text>
</g>
<!-- RecipesController -->
<g id="node8" class="node"><title>RecipesController</title>
<polyline style="fill:none;stroke:black;" points="431,-198 614,-198 "/>
<path style="fill:none;stroke:black;" d="M614,-198C620,-198 626,-204 626,-210"/>
<polyline style="fill:none;stroke:black;" points="626,-210 626,-565 "/>
<path style="fill:none;stroke:black;" d="M626,-565C626,-571 620,-577 614,-577"/>
<polyline style="fill:none;stroke:black;" points="614,-577 431,-577 "/>
<path style="fill:none;stroke:black;" d="M431,-577C425,-577 419,-571 419,-565"/>
<polyline style="fill:none;stroke:black;" points="419,-565 419,-210 "/>
<path style="fill:none;stroke:black;" d="M419,-210C419,-204 425,-198 431,-198"/>
<text text-anchor="middle" x="522" y="-559.65" style="font-family:Times New Roman;font-size:14.00;">RecipesController</text>
<polyline style="fill:none;stroke:black;" points="419,-552 626,-552 "/>
<text text-anchor="start" x="426.75" y="-535.4" style="font-family:Times New Roman;font-size:14.00;">_one_time_conditions_valid_60?</text>
<text text-anchor="start" x="426.75" y="-518.9" style="font-family:Times New Roman;font-size:14.00;">_one_time_conditions_valid_64?</text>
<text text-anchor="start" x="426.75" y="-502.4" style="font-family:Times New Roman;font-size:14.00;">_one_time_conditions_valid_68?</text>
<text text-anchor="start" x="426.75" y="-485.9" style="font-family:Times New Roman;font-size:14.00;">_one_time_conditions_valid_72?</text>
<text text-anchor="start" x="426.75" y="-469.4" style="font-family:Times New Roman;font-size:14.00;">_one_time_conditions_valid_76?</text>
<text text-anchor="start" x="426.75" y="-452.9" style="font-family:Times New Roman;font-size:14.00;">create</text>
<text text-anchor="start" x="426.75" y="-436.4" style="font-family:Times New Roman;font-size:14.00;">destroy</text>
<text text-anchor="start" x="426.75" y="-419.9" style="font-family:Times New Roman;font-size:14.00;">edit</text>
<text text-anchor="start" x="426.75" y="-403.4" style="font-family:Times New Roman;font-size:14.00;">index</text>
<text text-anchor="start" x="426.75" y="-386.9" style="font-family:Times New Roman;font-size:14.00;">new</text>
<text text-anchor="start" x="426.75" y="-370.4" style="font-family:Times New Roman;font-size:14.00;">show</text>
<text text-anchor="start" x="426.75" y="-353.9" style="font-family:Times New Roman;font-size:14.00;">update</text>
<polyline style="fill:none;stroke:black;" points="419,-346 626,-346 "/>
<polyline style="fill:none;stroke:black;" points="419,-322 626,-322 "/>
<text text-anchor="start" x="426.625" y="-305.15" style="font-family:Times New Roman;font-size:14.00;">_layout</text>
<text text-anchor="start" x="426.625" y="-288.65" style="font-family:Times New Roman;font-size:14.00;">_run_process_action_callbacks</text>
<text text-anchor="start" x="426.625" y="-272.15" style="font-family:Times New Roman;font-size:14.00;">find_foods</text>
<text text-anchor="start" x="426.625" y="-255.65" style="font-family:Times New Roman;font-size:14.00;">find_foods_on_error</text>
<text text-anchor="start" x="426.625" y="-239.15" style="font-family:Times New Roman;font-size:14.00;">find_items</text>
<text text-anchor="start" x="426.625" y="-222.65" style="font-family:Times New Roman;font-size:14.00;">find_photos</text>
<text text-anchor="start" x="426.625" y="-206.15" style="font-family:Times New Roman;font-size:14.00;">find_recipe</text>
</g>
<!-- SessionsController -->
<g id="node9" class="node"><title>SessionsController</title>
<polyline style="fill:none;stroke:black;" points="57,-308 159,-308 "/>
<path style="fill:none;stroke:black;" d="M159,-308C165,-308 171,-314 171,-320"/>
<polyline style="fill:none;stroke:black;" points="171,-320 171,-445 "/>
<path style="fill:none;stroke:black;" d="M171,-445C171,-451 165,-457 159,-457"/>
<polyline style="fill:none;stroke:black;" points="159,-457 57,-457 "/>
<path style="fill:none;stroke:black;" d="M57,-457C51,-457 45,-451 45,-445"/>
<polyline style="fill:none;stroke:black;" points="45,-445 45,-320 "/>
<path style="fill:none;stroke:black;" d="M45,-320C45,-314 51,-308 57,-308"/>
<text text-anchor="middle" x="108" y="-439.65" style="font-family:Times New Roman;font-size:14.00;">SessionsController</text>
<polyline style="fill:none;stroke:black;" points="45,-432 171,-432 "/>
<text text-anchor="start" x="53.25" y="-415.4" style="font-family:Times New Roman;font-size:14.00;">create</text>
<text text-anchor="start" x="53.25" y="-398.9" style="font-family:Times New Roman;font-size:14.00;">destroy</text>
<text text-anchor="start" x="53.25" y="-382.4" style="font-family:Times New Roman;font-size:14.00;">from_facebook</text>
<text text-anchor="start" x="53.25" y="-365.9" style="font-family:Times New Roman;font-size:14.00;">new</text>
<polyline style="fill:none;stroke:black;" points="45,-358 171,-358 "/>
<text text-anchor="start" x="53.25" y="-340.65" style="font-family:Times New Roman;font-size:14.00;">note_failed_signin</text>
<polyline style="fill:none;stroke:black;" points="45,-333 171,-333 "/>
<text text-anchor="start" x="53" y="-315.65" style="font-family:Times New Roman;font-size:14.00;">_layout</text>
</g>
<!-- StoresController -->
<g id="node10" class="node"><title>StoresController</title>
<polyline style="fill:none;stroke:black;" points="607,-594 789,-594 "/>
<path style="fill:none;stroke:black;" d="M789,-594C795,-594 801,-600 801,-606"/>
<polyline style="fill:none;stroke:black;" points="801,-606 801,-829 "/>
<path style="fill:none;stroke:black;" d="M801,-829C801,-835 795,-841 789,-841"/>
<polyline style="fill:none;stroke:black;" points="789,-841 607,-841 "/>
<path style="fill:none;stroke:black;" d="M607,-841C601,-841 595,-835 595,-829"/>
<polyline style="fill:none;stroke:black;" points="595,-829 595,-606 "/>
<path style="fill:none;stroke:black;" d="M595,-606C595,-600 601,-594 607,-594"/>
<text text-anchor="middle" x="698" y="-823.65" style="font-family:Times New Roman;font-size:14.00;">StoresController</text>
<polyline style="fill:none;stroke:black;" points="595,-816 801,-816 "/>
<text text-anchor="start" x="603.125" y="-799.4" style="font-family:Times New Roman;font-size:14.00;">_one_time_conditions_valid_80?</text>
<text text-anchor="start" x="603.125" y="-782.9" style="font-family:Times New Roman;font-size:14.00;">create</text>
<text text-anchor="start" x="603.125" y="-766.4" style="font-family:Times New Roman;font-size:14.00;">destroy</text>
<text text-anchor="start" x="603.125" y="-749.9" style="font-family:Times New Roman;font-size:14.00;">edit</text>
<text text-anchor="start" x="603.125" y="-733.4" style="font-family:Times New Roman;font-size:14.00;">index</text>
<text text-anchor="start" x="603.125" y="-716.9" style="font-family:Times New Roman;font-size:14.00;">new</text>
<text text-anchor="start" x="603.125" y="-700.4" style="font-family:Times New Roman;font-size:14.00;">show</text>
<text text-anchor="start" x="603.125" y="-683.9" style="font-family:Times New Roman;font-size:14.00;">update</text>
<polyline style="fill:none;stroke:black;" points="595,-676 801,-676 "/>
<polyline style="fill:none;stroke:black;" points="595,-652 801,-652 "/>
<text text-anchor="start" x="603.125" y="-635.15" style="font-family:Times New Roman;font-size:14.00;">_layout</text>
<text text-anchor="start" x="603.125" y="-618.65" style="font-family:Times New Roman;font-size:14.00;">_run_process_action_callbacks</text>
<text text-anchor="start" x="603.125" y="-602.15" style="font-family:Times New Roman;font-size:14.00;">find_store</text>
</g>
<!-- UsersController -->
<g id="node11" class="node"><title>UsersController</title>
<polyline style="fill:none;stroke:black;" points="79,-551 165,-551 "/>
<path style="fill:none;stroke:black;" d="M165,-551C171,-551 177,-557 177,-563"/>
<polyline style="fill:none;stroke:black;" points="177,-563 177,-671 "/>
<path style="fill:none;stroke:black;" d="M177,-671C177,-677 171,-683 165,-683"/>
<polyline style="fill:none;stroke:black;" points="165,-683 79,-683 "/>
<path style="fill:none;stroke:black;" d="M79,-683C73,-683 67,-677 67,-671"/>
<polyline style="fill:none;stroke:black;" points="67,-671 67,-563 "/>
<path style="fill:none;stroke:black;" d="M67,-563C67,-557 73,-551 79,-551"/>
<text text-anchor="middle" x="122" y="-665.65" style="font-family:Times New Roman;font-size:14.00;">UsersController</text>
<polyline style="fill:none;stroke:black;" points="67,-658 177,-658 "/>
<text text-anchor="start" x="74.875" y="-641.15" style="font-family:Times New Roman;font-size:14.00;">create</text>
<text text-anchor="start" x="74.875" y="-624.65" style="font-family:Times New Roman;font-size:14.00;">index</text>
<text text-anchor="start" x="74.875" y="-608.15" style="font-family:Times New Roman;font-size:14.00;">new</text>
<polyline style="fill:none;stroke:black;" points="67,-600 177,-600 "/>
<polyline style="fill:none;stroke:black;" points="67,-576 177,-576 "/>
<text text-anchor="start" x="75" y="-558.65" style="font-family:Times New Roman;font-size:14.00;">_layout</text>
</g>
</g>
</svg>
