<?xml version="1.0" encoding="UTF-8" standalone="no"?>
<!DOCTYPE svg PUBLIC "-//W3C//DTD SVG 1.0//EN"
 "http://www.w3.org/TR/2001/REC-SVG-20010904/DTD/svg10.dtd" [
 <!ATTLIST svg xmlns:xlink CDATA #FIXED "http://www.w3.org/1999/xlink">
]>
<!-- Generated by Graphviz version 2.16.1 (Fri Mar  7 19:17:40 UTC 2008)
     For user: (woody) Woody Peterson -->
<!-- Title: models_diagram Pages: 1 -->
<svg width="1073pt" height="1076pt"
 viewBox="0.00 0.00 1073.00 1076.00" xmlns="http://www.w3.org/2000/svg" xmlns:xlink="http://www.w3.org/1999/xlink">
<g id="graph0" class="graph" transform="scale(1 1) rotate(0) translate(4 1072)">
<title>models_diagram</title>
<polygon style="fill:white;stroke:white;" points="-4,4 -4,-1072 1069,-1072 1069,4 -4,4"/>
<!-- _diagram_info -->
<g id="node1" class="node"><title>_diagram_info</title>
<text text-anchor="start" x="7.5" y="-994.8" style="font-family:Times New Roman;font-size:13.00;">Models diagram</text>
<text text-anchor="start" x="7.5" y="-979.8" style="font-family:Times New Roman;font-size:13.00;">Date: Nov 21 2010 &#45; 02:04</text>
<text text-anchor="start" x="7.5" y="-964.8" style="font-family:Times New Roman;font-size:13.00;">Migration version: 20101120231242</text>
<text text-anchor="start" x="7.5" y="-949.8" style="font-family:Times New Roman;font-size:13.00;">Generated by RailRoady 0.11.2</text>
<text text-anchor="start" x="7.5" y="-934.8" style="font-family:Times New Roman;font-size:13.00;">http://railroady.prestonlee.com</text>
</g>
<!-- Food -->
<g id="node2" class="node"><title>Food</title>
<polyline style="fill:none;stroke:black;" points="376,-168 577,-168 "/>
<path style="fill:none;stroke:black;" d="M577,-168C583,-168 589,-174 589,-180"/>
<polyline style="fill:none;stroke:black;" points="589,-180 589,-585 "/>
<path style="fill:none;stroke:black;" d="M589,-585C589,-591 583,-597 577,-597"/>
<polyline style="fill:none;stroke:black;" points="577,-597 376,-597 "/>
<path style="fill:none;stroke:black;" d="M376,-597C370,-597 364,-591 364,-585"/>
<polyline style="fill:none;stroke:black;" points="364,-585 364,-180 "/>
<path style="fill:none;stroke:black;" d="M364,-180C364,-174 370,-168 376,-168"/>
<text text-anchor="middle" x="476" y="-579.65" style="font-family:Times New Roman;font-size:14.00;">Food</text>
<polyline style="fill:none;stroke:black;" points="364,-572 589,-572 "/>
<text text-anchor="start" x="371.375" y="-555.4" style="font-family:Times New Roman;font-size:14.00;">name :string</text>
<text text-anchor="start" x="371.375" y="-538.9" style="font-family:Times New Roman;font-size:14.00;">kcal :float</text>
<text text-anchor="start" x="371.375" y="-522.4" style="font-family:Times New Roman;font-size:14.00;">fat :float</text>
<text text-anchor="start" x="371.375" y="-505.9" style="font-family:Times New Roman;font-size:14.00;">saturated_fat :float</text>
<text text-anchor="start" x="371.375" y="-489.4" style="font-family:Times New Roman;font-size:14.00;">monounsaturated_fat :float</text>
<text text-anchor="start" x="371.375" y="-472.9" style="font-family:Times New Roman;font-size:14.00;">polyunsaturated_fat :float</text>
<text text-anchor="start" x="371.375" y="-456.4" style="font-family:Times New Roman;font-size:14.00;">cholesterol :float</text>
<text text-anchor="start" x="371.375" y="-439.9" style="font-family:Times New Roman;font-size:14.00;">carbs :float</text>
<text text-anchor="start" x="371.375" y="-423.4" style="font-family:Times New Roman;font-size:14.00;">protein :float</text>
<text text-anchor="start" x="371.375" y="-406.9" style="font-family:Times New Roman;font-size:14.00;">sugar :float</text>
<text text-anchor="start" x="371.375" y="-390.4" style="font-family:Times New Roman;font-size:14.00;">fiber :float</text>
<text text-anchor="start" x="371.375" y="-373.9" style="font-family:Times New Roman;font-size:14.00;">created_at :datetime</text>
<text text-anchor="start" x="371.375" y="-357.4" style="font-family:Times New Roman;font-size:14.00;">updated_at :datetime</text>
<text text-anchor="start" x="371.375" y="-340.9" style="font-family:Times New Roman;font-size:14.00;">serving_size :string</text>
<text text-anchor="start" x="371.375" y="-324.4" style="font-family:Times New Roman;font-size:14.00;">servings :integer</text>
<text text-anchor="start" x="371.375" y="-307.9" style="font-family:Times New Roman;font-size:14.00;">fat_kcal :float</text>
<text text-anchor="start" x="371.375" y="-291.4" style="font-family:Times New Roman;font-size:14.00;">sodium :float</text>
<text text-anchor="start" x="371.375" y="-274.9" style="font-family:Times New Roman;font-size:14.00;">vitamin_a :float</text>
<text text-anchor="start" x="371.375" y="-258.4" style="font-family:Times New Roman;font-size:14.00;">vitamin_c :float</text>
<text text-anchor="start" x="371.375" y="-241.9" style="font-family:Times New Roman;font-size:14.00;">calcium :float</text>
<text text-anchor="start" x="371.375" y="-225.4" style="font-family:Times New Roman;font-size:14.00;">iron :float</text>
<text text-anchor="start" x="371.375" y="-208.9" style="font-family:Times New Roman;font-size:14.00;">common_weight :float</text>
<text text-anchor="start" x="371.375" y="-192.4" style="font-family:Times New Roman;font-size:14.00;">common_weight_description :string</text>
<text text-anchor="start" x="371.375" y="-175.9" style="font-family:Times New Roman;font-size:14.00;">source_type :string</text>
</g>
<!-- ReceiptItem -->
<g id="node8" class="node"><title>ReceiptItem</title>
<polyline style="fill:none;stroke:black;" points="301,-0 412,-0 "/>
<path style="fill:none;stroke:black;" d="M412,-0C418,-0 424,-6 424,-12"/>
<polyline style="fill:none;stroke:black;" points="424,-12 424,-104 "/>
<path style="fill:none;stroke:black;" d="M424,-104C424,-110 418,-116 412,-116"/>
<polyline style="fill:none;stroke:black;" points="412,-116 301,-116 "/>
<path style="fill:none;stroke:black;" d="M301,-116C295,-116 289,-110 289,-104"/>
<polyline style="fill:none;stroke:black;" points="289,-104 289,-12 "/>
<path style="fill:none;stroke:black;" d="M289,-12C289,-6 295,-0 301,-0"/>
<text text-anchor="middle" x="356" y="-98.65" style="font-family:Times New Roman;font-size:14.00;">ReceiptItem</text>
<polyline style="fill:none;stroke:black;" points="289,-91 424,-91 "/>
<text text-anchor="start" x="296.75" y="-73.65" style="font-family:Times New Roman;font-size:14.00;">name :string</text>
<text text-anchor="start" x="296.75" y="-57.15" style="font-family:Times New Roman;font-size:14.00;">price :decimal</text>
<text text-anchor="start" x="296.75" y="-40.65" style="font-family:Times New Roman;font-size:14.00;">created_at :datetime</text>
<text text-anchor="start" x="296.75" y="-24.15" style="font-family:Times New Roman;font-size:14.00;">updated_at :datetime</text>
<text text-anchor="start" x="296.75" y="-7.65" style="font-family:Times New Roman;font-size:14.00;">qty :string</text>
</g>
<!-- Food&#45;&gt;ReceiptItem -->
<g id="edge2" class="edge"><title>Food&#45;&gt;ReceiptItem</title>
<path style="fill:none;stroke:black;" d="M393,-160C388,-148 384,-136 381,-125"/>
<ellipse style="fill:none;stroke:black;" cx="394.595" cy="-164.255" rx="4.00001" ry="4.00001"/>
<polygon style="fill:black;stroke:black;" points="381.061,-125.138 381.112,-114.172 379.843,-122.397 377,-116 379.843,-122.397 372.888,-117.828 381.061,-125.138 381.061,-125.138"/>
</g>
<!-- Item -->
<g id="node3" class="node"><title>Item</title>
<polyline style="fill:none;stroke:black;" points="618,-292 729,-292 "/>
<path style="fill:none;stroke:black;" d="M729,-292C735,-292 741,-298 741,-304"/>
<polyline style="fill:none;stroke:black;" points="741,-304 741,-462 "/>
<path style="fill:none;stroke:black;" d="M741,-462C741,-468 735,-474 729,-474"/>
<polyline style="fill:none;stroke:black;" points="729,-474 618,-474 "/>
<path style="fill:none;stroke:black;" d="M618,-474C612,-474 606,-468 606,-462"/>
<polyline style="fill:none;stroke:black;" points="606,-462 606,-304 "/>
<path style="fill:none;stroke:black;" d="M606,-304C606,-298 612,-292 618,-292"/>
<text text-anchor="middle" x="673" y="-456.65" style="font-family:Times New Roman;font-size:14.00;">Item</text>
<polyline style="fill:none;stroke:black;" points="606,-449 741,-449 "/>
<text text-anchor="start" x="613.75" y="-431.65" style="font-family:Times New Roman;font-size:14.00;">name :string</text>
<text text-anchor="start" x="613.75" y="-415.15" style="font-family:Times New Roman;font-size:14.00;">bulk_price :decimal</text>
<text text-anchor="start" x="613.75" y="-398.65" style="font-family:Times New Roman;font-size:14.00;">calories :integer</text>
<text text-anchor="start" x="613.75" y="-382.15" style="font-family:Times New Roman;font-size:14.00;">fat :float</text>
<text text-anchor="start" x="613.75" y="-365.65" style="font-family:Times New Roman;font-size:14.00;">carbs :float</text>
<text text-anchor="start" x="613.75" y="-349.15" style="font-family:Times New Roman;font-size:14.00;">protein :float</text>
<text text-anchor="start" x="613.75" y="-332.65" style="font-family:Times New Roman;font-size:14.00;">created_at :datetime</text>
<text text-anchor="start" x="613.75" y="-316.15" style="font-family:Times New Roman;font-size:14.00;">updated_at :datetime</text>
<text text-anchor="start" x="613.75" y="-299.65" style="font-family:Times New Roman;font-size:14.00;">qty :string</text>
</g>
<!-- List -->
<g id="node4" class="node"><title>List</title>
<polyline style="fill:none;stroke:black;" points="848,-936 959,-936 "/>
<path style="fill:none;stroke:black;" d="M959,-936C965,-936 971,-942 971,-948"/>
<polyline style="fill:none;stroke:black;" points="971,-948 971,-990 "/>
<path style="fill:none;stroke:black;" d="M971,-990C971,-996 965,-1002 959,-1002"/>
<polyline style="fill:none;stroke:black;" points="959,-1002 848,-1002 "/>
<path style="fill:none;stroke:black;" d="M848,-1002C842,-1002 836,-996 836,-990"/>
<polyline style="fill:none;stroke:black;" points="836,-990 836,-948 "/>
<path style="fill:none;stroke:black;" d="M836,-948C836,-942 842,-936 848,-936"/>
<text text-anchor="middle" x="903" y="-984.65" style="font-family:Times New Roman;font-size:14.00;">List</text>
<polyline style="fill:none;stroke:black;" points="836,-977 971,-977 "/>
<text text-anchor="start" x="843.75" y="-959.9" style="font-family:Times New Roman;font-size:14.00;">created_at :datetime</text>
<text text-anchor="start" x="843.75" y="-943.4" style="font-family:Times New Roman;font-size:14.00;">updated_at :datetime</text>
</g>
<!-- List&#45;&gt;Food -->
<g id="edge6" class="edge"><title>List&#45;&gt;Food</title>
<path style="fill:none;stroke:black;" d="M907,-926C911,-848 916,-692 884,-650 843,-597 599,-598 597,-598 597,-598 597,-598 597,-598"/>
<polygon style="fill:black;stroke:black;" points="906.995,-926.05 901.522,-935.552 906.697,-929.035 906,-936 906.697,-929.035 910.478,-936.448 906.995,-926.05 906.995,-926.05"/>
<polygon style="fill:black;stroke:black;" points="597,-598 591.7,-588.4 594.6,-596.2 589,-592 594.6,-596.2 586.3,-595.6 597,-598 597,-598"/>
</g>
<!-- ListItem -->
<g id="node5" class="node"><title>ListItem</title>
<polyline style="fill:none;stroke:black;" points="943,-691 1054,-691 "/>
<path style="fill:none;stroke:black;" d="M1054,-691C1060,-691 1066,-697 1066,-703"/>
<polyline style="fill:none;stroke:black;" points="1066,-703 1066,-778 "/>
<path style="fill:none;stroke:black;" d="M1066,-778C1066,-784 1060,-790 1054,-790"/>
<polyline style="fill:none;stroke:black;" points="1054,-790 943,-790 "/>
<path style="fill:none;stroke:black;" d="M943,-790C937,-790 931,-784 931,-778"/>
<polyline style="fill:none;stroke:black;" points="931,-778 931,-703 "/>
<path style="fill:none;stroke:black;" d="M931,-703C931,-697 937,-691 943,-691"/>
<text text-anchor="middle" x="998" y="-772.65" style="font-family:Times New Roman;font-size:14.00;">ListItem</text>
<polyline style="fill:none;stroke:black;" points="931,-765 1066,-765 "/>
<text text-anchor="start" x="938.75" y="-748.4" style="font-family:Times New Roman;font-size:14.00;">qty :string</text>
<text text-anchor="start" x="938.75" y="-731.9" style="font-family:Times New Roman;font-size:14.00;">name :string</text>
<text text-anchor="start" x="938.75" y="-715.4" style="font-family:Times New Roman;font-size:14.00;">created_at :datetime</text>
<text text-anchor="start" x="938.75" y="-698.9" style="font-family:Times New Roman;font-size:14.00;">updated_at :datetime</text>
</g>
<!-- List&#45;&gt;ListItem -->
<g id="edge8" class="edge"><title>List&#45;&gt;ListItem</title>
<path style="fill:none;stroke:black;" d="M920,-929C935,-893 956,-840 973,-799"/>
<ellipse style="fill:none;stroke:black;" cx="918.576" cy="-932.323" rx="4.00002" ry="4.00002"/>
<polygon style="fill:black;stroke:black;" points="972.939,-799.138 981.112,-791.828 974.157,-796.397 977,-790 974.157,-796.397 972.888,-788.172 972.939,-799.138 972.939,-799.138"/>
</g>
<!-- Recipe -->
<g id="node9" class="node"><title>Recipe</title>
<polyline style="fill:none;stroke:black;" points="601,-666 712,-666 "/>
<path style="fill:none;stroke:black;" d="M712,-666C718,-666 724,-672 724,-678"/>
<polyline style="fill:none;stroke:black;" points="724,-678 724,-803 "/>
<path style="fill:none;stroke:black;" d="M724,-803C724,-809 718,-815 712,-815"/>
<polyline style="fill:none;stroke:black;" points="712,-815 601,-815 "/>
<path style="fill:none;stroke:black;" d="M601,-815C595,-815 589,-809 589,-803"/>
<polyline style="fill:none;stroke:black;" points="589,-803 589,-678 "/>
<path style="fill:none;stroke:black;" d="M589,-678C589,-672 595,-666 601,-666"/>
<text text-anchor="middle" x="656" y="-797.65" style="font-family:Times New Roman;font-size:14.00;">Recipe</text>
<polyline style="fill:none;stroke:black;" points="589,-790 724,-790 "/>
<text text-anchor="start" x="596.75" y="-773.15" style="font-family:Times New Roman;font-size:14.00;">name :string</text>
<text text-anchor="start" x="596.75" y="-756.65" style="font-family:Times New Roman;font-size:14.00;">prep_time :float</text>
<text text-anchor="start" x="596.75" y="-740.15" style="font-family:Times New Roman;font-size:14.00;">cook_time :float</text>
<text text-anchor="start" x="596.75" y="-723.65" style="font-family:Times New Roman;font-size:14.00;">servings :integer</text>
<text text-anchor="start" x="596.75" y="-707.15" style="font-family:Times New Roman;font-size:14.00;">directions :text</text>
<text text-anchor="start" x="596.75" y="-690.65" style="font-family:Times New Roman;font-size:14.00;">created_at :datetime</text>
<text text-anchor="start" x="596.75" y="-674.15" style="font-family:Times New Roman;font-size:14.00;">updated_at :datetime</text>
</g>
<!-- List&#45;&gt;Recipe -->
<g id="edge4" class="edge"><title>List&#45;&gt;Recipe</title>
<path style="fill:none;stroke:black;" d="M848,-930C814,-903 768,-868 732,-832 729,-829 726,-826 723,-823"/>
<polygon style="fill:black;stroke:black;" points="848,-930 853.3,-939.6 850.4,-931.8 856,-936 850.4,-931.8 858.7,-932.4 848,-930 848,-930"/>
<polygon style="fill:black;stroke:black;" points="722.585,-822.526 719.387,-812.037 720.61,-820.268 716,-815 720.61,-820.268 712.613,-817.963 722.585,-822.526 722.585,-822.526"/>
</g>
<!-- Photo -->
<g id="node6" class="node"><title>Photo</title>
<polyline style="fill:none;stroke:black;" points="753,-650 864,-650 "/>
<path style="fill:none;stroke:black;" d="M864,-650C870,-650 876,-656 876,-662"/>
<polyline style="fill:none;stroke:black;" points="876,-662 876,-820 "/>
<path style="fill:none;stroke:black;" d="M876,-820C876,-826 870,-832 864,-832"/>
<polyline style="fill:none;stroke:black;" points="864,-832 753,-832 "/>
<path style="fill:none;stroke:black;" d="M753,-832C747,-832 741,-826 741,-820"/>
<polyline style="fill:none;stroke:black;" points="741,-820 741,-662 "/>
<path style="fill:none;stroke:black;" d="M741,-662C741,-656 747,-650 753,-650"/>
<text text-anchor="middle" x="808" y="-814.65" style="font-family:Times New Roman;font-size:14.00;">Photo</text>
<polyline style="fill:none;stroke:black;" points="741,-807 876,-807 "/>
<text text-anchor="start" x="748.75" y="-789.65" style="font-family:Times New Roman;font-size:14.00;">content_type :string</text>
<text text-anchor="start" x="748.75" y="-773.15" style="font-family:Times New Roman;font-size:14.00;">filename :string</text>
<text text-anchor="start" x="748.75" y="-756.65" style="font-family:Times New Roman;font-size:14.00;">thumbnail :string</text>
<text text-anchor="start" x="748.75" y="-740.15" style="font-family:Times New Roman;font-size:14.00;">size :integer</text>
<text text-anchor="start" x="748.75" y="-723.65" style="font-family:Times New Roman;font-size:14.00;">width :integer</text>
<text text-anchor="start" x="748.75" y="-707.15" style="font-family:Times New Roman;font-size:14.00;">height :integer</text>
<text text-anchor="start" x="748.75" y="-690.65" style="font-family:Times New Roman;font-size:14.00;">created_at :datetime</text>
<text text-anchor="start" x="748.75" y="-674.15" style="font-family:Times New Roman;font-size:14.00;">updated_at :datetime</text>
<text text-anchor="start" x="748.75" y="-657.65" style="font-family:Times New Roman;font-size:14.00;">caption :string</text>
</g>
<!-- RecipePhoto -->
<g id="node10" class="node"><title>RecipePhoto</title>
<polyline style="fill:none;stroke:black;" points="770,-292 881,-292 "/>
<path style="fill:none;stroke:black;" d="M881,-292C887,-292 893,-298 893,-304"/>
<polyline style="fill:none;stroke:black;" points="893,-304 893,-462 "/>
<path style="fill:none;stroke:black;" d="M893,-462C893,-468 887,-474 881,-474"/>
<polyline style="fill:none;stroke:black;" points="881,-474 770,-474 "/>
<path style="fill:none;stroke:black;" d="M770,-474C764,-474 758,-468 758,-462"/>
<polyline style="fill:none;stroke:black;" points="758,-462 758,-304 "/>
<path style="fill:none;stroke:black;" d="M758,-304C758,-298 764,-292 770,-292"/>
<text text-anchor="middle" x="825" y="-456.65" style="font-family:Times New Roman;font-size:14.00;">RecipePhoto</text>
<polyline style="fill:none;stroke:black;" points="758,-449 893,-449 "/>
<text text-anchor="start" x="765.75" y="-431.65" style="font-family:Times New Roman;font-size:14.00;">content_type :string</text>
<text text-anchor="start" x="765.75" y="-415.15" style="font-family:Times New Roman;font-size:14.00;">filename :string</text>
<text text-anchor="start" x="765.75" y="-398.65" style="font-family:Times New Roman;font-size:14.00;">thumbnail :string</text>
<text text-anchor="start" x="765.75" y="-382.15" style="font-family:Times New Roman;font-size:14.00;">size :integer</text>
<text text-anchor="start" x="765.75" y="-365.65" style="font-family:Times New Roman;font-size:14.00;">width :integer</text>
<text text-anchor="start" x="765.75" y="-349.15" style="font-family:Times New Roman;font-size:14.00;">height :integer</text>
<text text-anchor="start" x="765.75" y="-332.65" style="font-family:Times New Roman;font-size:14.00;">created_at :datetime</text>
<text text-anchor="start" x="765.75" y="-316.15" style="font-family:Times New Roman;font-size:14.00;">updated_at :datetime</text>
<text text-anchor="start" x="765.75" y="-299.65" style="font-family:Times New Roman;font-size:14.00;">caption :string</text>
</g>
<!-- Photo&#45;&gt;RecipePhoto -->
<g id="edge20" class="edge"><title>Photo&#45;&gt;RecipePhoto</title>
<path style="fill:none;stroke:black;" d="M813,-640C815,-588 818,-525 820,-474"/>
<polygon style="fill:none;stroke:black;" points="809.512,-639.701 812,-650 816.478,-640.398 809.512,-639.701"/>
</g>
<!-- Receipt -->
<g id="node7" class="node"><title>Receipt</title>
<polyline style="fill:none;stroke:black;" points="261,-708 372,-708 "/>
<path style="fill:none;stroke:black;" d="M372,-708C378,-708 384,-714 384,-720"/>
<polyline style="fill:none;stroke:black;" points="384,-720 384,-762 "/>
<path style="fill:none;stroke:black;" d="M384,-762C384,-768 378,-774 372,-774"/>
<polyline style="fill:none;stroke:black;" points="372,-774 261,-774 "/>
<path style="fill:none;stroke:black;" d="M261,-774C255,-774 249,-768 249,-762"/>
<polyline style="fill:none;stroke:black;" points="249,-762 249,-720 "/>
<path style="fill:none;stroke:black;" d="M249,-720C249,-714 255,-708 261,-708"/>
<text text-anchor="middle" x="316" y="-756.65" style="font-family:Times New Roman;font-size:14.00;">Receipt</text>
<polyline style="fill:none;stroke:black;" points="249,-749 384,-749 "/>
<text text-anchor="start" x="256.75" y="-731.9" style="font-family:Times New Roman;font-size:14.00;">created_at :datetime</text>
<text text-anchor="start" x="256.75" y="-715.4" style="font-family:Times New Roman;font-size:14.00;">updated_at :datetime</text>
</g>
<!-- Receipt&#45;&gt;ReceiptItem -->
<g id="edge10" class="edge"><title>Receipt&#45;&gt;ReceiptItem</title>
<path style="fill:none;stroke:black;" d="M313,-700C307,-605 297,-365 325,-168 327,-154 331,-140 334,-126"/>
<ellipse style="fill:none;stroke:black;" cx="313.504" cy="-704.031" rx="4.00001" ry="4.00001"/>
<polygon style="fill:black;stroke:black;" points="334.126,-125.578 341.31,-117.293 334.989,-122.705 337,-116 334.989,-122.705 332.69,-114.707 334.126,-125.578 334.126,-125.578"/>
<text text-anchor="middle" x="341" y="-378.65" style="font-family:Times New Roman;font-size:14.00;">items</text>
</g>
<!-- Recipe&#45;&gt;Food -->
<g id="edge12" class="edge"><title>Recipe&#45;&gt;Food</title>
<path style="fill:none;stroke:black;" d="M614,-657C606,-641 597,-624 588,-606"/>
<polygon style="fill:black;stroke:black;" points="613.939,-656.862 613.888,-667.828 615.157,-659.603 618,-666 615.157,-659.603 622.112,-664.172 613.939,-656.862 613.939,-656.862"/>
<polygon style="fill:black;stroke:black;" points="587.856,-605.742 586.934,-594.815 586.4,-603.119 583,-597 586.4,-603.119 579.066,-599.185 587.856,-605.742 587.856,-605.742"/>
</g>
<!-- Recipe&#45;&gt;Item -->
<g id="edge16" class="edge"><title>Recipe&#45;&gt;Item</title>
<path style="fill:none;stroke:black;" d="M660,-658C663,-606 666,-539 668,-484"/>
<ellipse style="fill:none;stroke:black;" cx="660" cy="-662" rx="4" ry="4"/>
<polygon style="fill:black;stroke:black;" points="668.005,-483.95 673.478,-474.448 668.303,-480.965 669,-474 668.303,-480.965 664.522,-473.552 668.005,-483.95 668.005,-483.95"/>
</g>
<!-- Recipe&#45;&gt;RecipePhoto -->
<g id="edge14" class="edge"><title>Recipe&#45;&gt;RecipePhoto</title>
<path style="fill:none;stroke:black;" d="M713,-659C726,-639 739,-619 749,-598 766,-562 782,-520 795,-484"/>
<ellipse style="fill:none;stroke:black;" cx="710.985" cy="-662.527" rx="4.00002" ry="4.00002"/>
<polygon style="fill:black;stroke:black;" points="795.126,-483.578 802.31,-475.293 795.989,-480.705 798,-474 795.989,-480.705 793.69,-472.707 795.126,-483.578 795.126,-483.578"/>
<text text-anchor="middle" x="756" y="-619.65" style="font-family:Times New Roman;font-size:14.00;">photos</text>
</g>
<!-- ::RecipePhoto -->
<g id="node22" class="node"><title>::RecipePhoto</title>
<ellipse style="fill:none;stroke:black;" cx="825" cy="-58" rx="53.0734" ry="18"/>
<text text-anchor="middle" x="825" y="-53.65" style="font-family:Times New Roman;font-size:14.00;">::RecipePhoto</text>
</g>
<!-- RecipePhoto&#45;&gt;::RecipePhoto -->
<g id="edge18" class="edge"><title>RecipePhoto&#45;&gt;::RecipePhoto</title>
<path style="fill:none;stroke:black;" d="M825,-284C825,-215 825,-130 825,-86"/>
<ellipse style="fill:none;stroke:black;" cx="825" cy="-288" rx="4" ry="4"/>
<polygon style="fill:black;stroke:black;" points="825,-86 829.5,-76 825,-83 825,-76 825,-83 820.5,-76 825,-86 825,-86"/>
<text text-anchor="middle" x="856" y="-137.65" style="font-family:Times New Roman;font-size:14.00;">thumbnails</text>
</g>
<!-- Store -->
<g id="node11" class="node"><title>Store</title>
<polyline style="fill:none;stroke:black;" points="240,-894 351,-894 "/>
<path style="fill:none;stroke:black;" d="M351,-894C357,-894 363,-900 363,-906"/>
<polyline style="fill:none;stroke:black;" points="363,-906 363,-1031 "/>
<path style="fill:none;stroke:black;" d="M363,-1031C363,-1037 357,-1043 351,-1043"/>
<polyline style="fill:none;stroke:black;" points="351,-1043 240,-1043 "/>
<path style="fill:none;stroke:black;" d="M240,-1043C234,-1043 228,-1037 228,-1031"/>
<polyline style="fill:none;stroke:black;" points="228,-1031 228,-906 "/>
<path style="fill:none;stroke:black;" d="M228,-906C228,-900 234,-894 240,-894"/>
<text text-anchor="middle" x="295" y="-1025.65" style="font-family:Times New Roman;font-size:14.00;">Store</text>
<polyline style="fill:none;stroke:black;" points="228,-1018 363,-1018 "/>
<text text-anchor="start" x="235.75" y="-1001.15" style="font-family:Times New Roman;font-size:14.00;">street :string</text>
<text text-anchor="start" x="235.75" y="-984.65" style="font-family:Times New Roman;font-size:14.00;">state :string</text>
<text text-anchor="start" x="235.75" y="-968.15" style="font-family:Times New Roman;font-size:14.00;">city :string</text>
<text text-anchor="start" x="235.75" y="-951.65" style="font-family:Times New Roman;font-size:14.00;">zip :string</text>
<text text-anchor="start" x="235.75" y="-935.15" style="font-family:Times New Roman;font-size:14.00;">name :string</text>
<text text-anchor="start" x="235.75" y="-918.65" style="font-family:Times New Roman;font-size:14.00;">created_at :datetime</text>
<text text-anchor="start" x="235.75" y="-902.15" style="font-family:Times New Roman;font-size:14.00;">updated_at :datetime</text>
</g>
<!-- Store&#45;&gt;Receipt -->
<g id="edge22" class="edge"><title>Store&#45;&gt;Receipt</title>
<path style="fill:none;stroke:black;" d="M303,-886C307,-851 309,-813 312,-784"/>
<ellipse style="fill:none;stroke:black;" cx="302.496" cy="-890.031" rx="4.00001" ry="4.00001"/>
<polygon style="fill:black;stroke:black;" points="312.005,-783.95 317.478,-774.448 312.303,-780.965 313,-774 312.303,-780.965 308.522,-773.552 312.005,-783.95 312.005,-783.95"/>
</g>
<!-- User -->
<g id="node12" class="node"><title>User</title>
<polyline style="fill:none;stroke:black;" points="392,-870 605,-870 "/>
<path style="fill:none;stroke:black;" d="M605,-870C611,-870 617,-876 617,-882"/>
<polyline style="fill:none;stroke:black;" points="617,-882 617,-1056 "/>
<path style="fill:none;stroke:black;" d="M617,-1056C617,-1062 611,-1068 605,-1068"/>
<polyline style="fill:none;stroke:black;" points="605,-1068 392,-1068 "/>
<path style="fill:none;stroke:black;" d="M392,-1068C386,-1068 380,-1062 380,-1056"/>
<polyline style="fill:none;stroke:black;" points="380,-1056 380,-882 "/>
<path style="fill:none;stroke:black;" d="M380,-882C380,-876 386,-870 392,-870"/>
<text text-anchor="middle" x="498" y="-1050.65" style="font-family:Times New Roman;font-size:14.00;">User</text>
<polyline style="fill:none;stroke:black;" points="380,-1043 617,-1043 "/>
<text text-anchor="start" x="387.375" y="-1025.9" style="font-family:Times New Roman;font-size:14.00;">login :string</text>
<text text-anchor="start" x="387.375" y="-1009.4" style="font-family:Times New Roman;font-size:14.00;">name :string</text>
<text text-anchor="start" x="387.375" y="-992.9" style="font-family:Times New Roman;font-size:14.00;">email :string</text>
<text text-anchor="start" x="387.375" y="-976.4" style="font-family:Times New Roman;font-size:14.00;">crypted_password :string</text>
<text text-anchor="start" x="387.375" y="-959.9" style="font-family:Times New Roman;font-size:14.00;">salt :string</text>
<text text-anchor="start" x="387.375" y="-943.4" style="font-family:Times New Roman;font-size:14.00;">created_at :datetime</text>
<text text-anchor="start" x="387.375" y="-926.9" style="font-family:Times New Roman;font-size:14.00;">updated_at :datetime</text>
<text text-anchor="start" x="387.375" y="-910.4" style="font-family:Times New Roman;font-size:14.00;">remember_token :string</text>
<text text-anchor="start" x="387.375" y="-893.9" style="font-family:Times New Roman;font-size:14.00;">remember_token_expires_at :datetime</text>
<text text-anchor="start" x="387.375" y="-877.4" style="font-family:Times New Roman;font-size:14.00;">fb_email :string</text>
</g>
<!-- User&#45;&gt;Food -->
<g id="edge28" class="edge"><title>User&#45;&gt;Food</title>
<path style="fill:none;stroke:black;" d="M494,-862C491,-791 487,-694 484,-607"/>
<ellipse style="fill:none;stroke:black;" cx="494" cy="-866" rx="4" ry="4"/>
<polygon style="fill:black;stroke:black;" points="484,-607 488.5,-597 484,-604 484,-597 484,-604 479.5,-597 484,-607 484,-607"/>
</g>
<!-- User&#45;&gt;Receipt -->
<g id="edge26" class="edge"><title>User&#45;&gt;Receipt</title>
<path style="fill:none;stroke:black;" d="M414,-863C391,-835 368,-804 349,-782"/>
<ellipse style="fill:none;stroke:black;" cx="416.675" cy="-866.745" rx="4.00002" ry="4.00002"/>
<polygon style="fill:black;stroke:black;" points="349,-782 346.6,-771.3 347.2,-779.6 343,-774 347.2,-779.6 339.4,-776.7 349,-782 349,-782"/>
</g>
<!-- User&#45;&gt;Recipe -->
<g id="edge24" class="edge"><title>User&#45;&gt;Recipe</title>
<path style="fill:none;stroke:black;" d="M572,-863C580,-850 589,-837 598,-823"/>
<ellipse style="fill:none;stroke:black;" cx="569.325" cy="-866.745" rx="4.00002" ry="4.00002"/>
<polygon style="fill:black;stroke:black;" points="598,-823 607.6,-817.7 599.8,-820.6 604,-815 599.8,-820.6 600.4,-812.3 598,-823 598,-823"/>
</g>
</g>
</svg>
