<?xml version="1.0" encoding="UTF-8" standalone="no"?>
<!DOCTYPE svg PUBLIC "-//W3C//DTD SVG 1.0//EN"
 "http://www.w3.org/TR/2001/REC-SVG-20010904/DTD/svg10.dtd" [
 <!ATTLIST svg xmlns:xlink CDATA #FIXED "http://www.w3.org/1999/xlink">
]>
<!-- Generated by Graphviz version 2.16.1 (Fri Mar  7 19:17:40 UTC 2008)
     For user: (woody) Woody Peterson -->
<!-- Title: models_diagram Pages: 1 -->
<svg width="652pt" height="342pt"
 viewBox="0.00 0.00 652.00 342.00" xmlns="http://www.w3.org/2000/svg" xmlns:xlink="http://www.w3.org/1999/xlink">
<g id="graph0" class="graph" transform="scale(1 1) rotate(0) translate(4 338)">
<title>models_diagram</title>
<polygon style="fill:white;stroke:white;" points="-4,4 -4,-338 648,-338 648,4 -4,4"/>
<!-- _diagram_info -->
<g id="node1" class="node"><title>_diagram_info</title>
<text text-anchor="start" x="7.5" y="-317.8" style="font-family:Times New Roman;font-size:13.00;">Models diagram</text>
<text text-anchor="start" x="7.5" y="-302.8" style="font-family:Times New Roman;font-size:13.00;">Date: Nov 21 2010 &#45; 02:04</text>
<text text-anchor="start" x="7.5" y="-287.8" style="font-family:Times New Roman;font-size:13.00;">Migration version: 20101120231242</text>
<text text-anchor="start" x="7.5" y="-272.8" style="font-family:Times New Roman;font-size:13.00;">Generated by RailRoady 0.11.2</text>
<text text-anchor="start" x="7.5" y="-257.8" style="font-family:Times New Roman;font-size:13.00;">http://railroady.prestonlee.com</text>
</g>
<!-- Food -->
<g id="node2" class="node"><title>Food</title>
<ellipse style="fill:none;stroke:black;" cx="330" cy="-106" rx="28.0741" ry="18"/>
<text text-anchor="middle" x="330" y="-101.65" style="font-family:Times New Roman;font-size:14.00;">Food</text>
</g>
<!-- ReceiptItem -->
<g id="node8" class="node"><title>ReceiptItem</title>
<ellipse style="fill:none;stroke:black;" cx="280" cy="-18" rx="47.9491" ry="18"/>
<text text-anchor="middle" x="280" y="-13.65" style="font-family:Times New Roman;font-size:14.00;">ReceiptItem</text>
</g>
<!-- Food&#45;&gt;ReceiptItem -->
<g id="edge2" class="edge"><title>Food&#45;&gt;ReceiptItem</title>
<path style="fill:none;stroke:black;" d="M316,-82C310,-70 302,-56 295,-45"/>
<ellipse style="fill:none;stroke:black;" cx="318.015" cy="-85.527" rx="4.00002" ry="4.00002"/>
<polygon style="fill:black;stroke:black;" points="294.856,-44.7416 293.934,-33.8146 293.4,-42.1191 290,-36 293.4,-42.1191 286.066,-38.1854 294.856,-44.7416 294.856,-44.7416"/>
</g>
<!-- Item -->
<g id="node3" class="node"><title>Item</title>
<ellipse style="fill:none;stroke:black;" cx="403" cy="-106" rx="27" ry="18"/>
<text text-anchor="middle" x="403" y="-101.65" style="font-family:Times New Roman;font-size:14.00;">Item</text>
</g>
<!-- List -->
<g id="node4" class="node"><title>List</title>
<ellipse style="fill:none;stroke:black;" cx="544" cy="-292" rx="27" ry="18"/>
<text text-anchor="middle" x="544" y="-287.65" style="font-family:Times New Roman;font-size:14.00;">List</text>
</g>
<!-- List&#45;&gt;Food -->
<g id="edge6" class="edge"><title>List&#45;&gt;Food</title>
<path style="fill:none;stroke:black;" d="M544,-264C543,-239 539,-203 525,-176 514,-156 509,-151 490,-142 440,-117 419,-140 367,-124 365,-123 363,-123 361,-122"/>
<polygon style="fill:black;stroke:black;" points="544,-264 539.5,-274 544,-267 544,-274 544,-267 548.5,-274 544,-264 544,-264"/>
<polygon style="fill:black;stroke:black;" points="361.138,-122.061 353.828,-113.888 358.397,-120.843 352,-118 358.397,-120.843 350.172,-122.112 361.138,-122.061 361.138,-122.061"/>
</g>
<!-- ListItem -->
<g id="node5" class="node"><title>ListItem</title>
<ellipse style="fill:none;stroke:black;" cx="608" cy="-194" rx="36.1964" ry="18"/>
<text text-anchor="middle" x="608" y="-189.65" style="font-family:Times New Roman;font-size:14.00;">ListItem</text>
</g>
<!-- List&#45;&gt;ListItem -->
<g id="edge8" class="edge"><title>List&#45;&gt;ListItem</title>
<path style="fill:none;stroke:black;" d="M559,-268C569,-253 582,-235 591,-220"/>
<ellipse style="fill:none;stroke:black;" cx="556.985" cy="-271.527" rx="4.00002" ry="4.00002"/>
<polygon style="fill:black;stroke:black;" points="591.453,-219.321 600.744,-213.496 593.117,-216.824 597,-211 593.117,-216.824 593.256,-208.504 591.453,-219.321 591.453,-219.321"/>
</g>
<!-- Recipe -->
<g id="node9" class="node"><title>Recipe</title>
<ellipse style="fill:none;stroke:black;" cx="403" cy="-194" rx="32.9491" ry="18"/>
<text text-anchor="middle" x="403" y="-189.65" style="font-family:Times New Roman;font-size:14.00;">Recipe</text>
</g>
<!-- List&#45;&gt;Recipe -->
<g id="edge4" class="edge"><title>List&#45;&gt;Recipe</title>
<path style="fill:none;stroke:black;" d="M517,-273C493,-256 457,-231 432,-214"/>
<polygon style="fill:black;stroke:black;" points="517,-273 522.3,-282.6 519.4,-274.8 525,-279 519.4,-274.8 527.7,-275.4 517,-273 517,-273"/>
<polygon style="fill:black;stroke:black;" points="432,-214 426.7,-204.4 429.6,-212.2 424,-208 429.6,-212.2 421.3,-211.6 432,-214 432,-214"/>
</g>
<!-- Photo -->
<g id="node6" class="node"><title>Photo</title>
<ellipse style="fill:none;stroke:black;" cx="486" cy="-194" rx="29.9491" ry="18"/>
<text text-anchor="middle" x="486" y="-189.65" style="font-family:Times New Roman;font-size:14.00;">Photo</text>
</g>
<!-- RecipePhoto -->
<g id="node10" class="node"><title>RecipePhoto</title>
<ellipse style="fill:none;stroke:black;" cx="498" cy="-106" rx="49.8241" ry="18"/>
<text text-anchor="middle" x="498" y="-101.65" style="font-family:Times New Roman;font-size:14.00;">RecipePhoto</text>
</g>
<!-- Photo&#45;&gt;RecipePhoto -->
<g id="edge20" class="edge"><title>Photo&#45;&gt;RecipePhoto</title>
<path style="fill:none;stroke:black;" d="M489,-166C491,-152 493,-136 495,-124"/>
<polygon style="fill:none;stroke:black;" points="485.512,-165.701 488,-176 492.478,-166.398 485.512,-165.701"/>
</g>
<!-- Receipt -->
<g id="node7" class="node"><title>Receipt</title>
<ellipse style="fill:none;stroke:black;" cx="256" cy="-194" rx="34.8241" ry="18"/>
<text text-anchor="middle" x="256" y="-189.65" style="font-family:Times New Roman;font-size:14.00;">Receipt</text>
</g>
<!-- Receipt&#45;&gt;ReceiptItem -->
<g id="edge10" class="edge"><title>Receipt&#45;&gt;ReceiptItem</title>
<path style="fill:none;stroke:black;" d="M256,-168C257,-146 259,-114 263,-88 265,-74 269,-59 272,-46"/>
<ellipse style="fill:none;stroke:black;" cx="256" cy="-172" rx="4" ry="4"/>
<polygon style="fill:black;stroke:black;" points="272.126,-45.5783 279.31,-37.2931 272.989,-42.7048 275,-36 272.989,-42.7048 270.69,-34.7069 272.126,-45.5783 272.126,-45.5783"/>
<text text-anchor="middle" x="279" y="-101.65" style="font-family:Times New Roman;font-size:14.00;">items</text>
</g>
<!-- Recipe&#45;&gt;Food -->
<g id="edge12" class="edge"><title>Recipe&#45;&gt;Food</title>
<path style="fill:none;stroke:black;" d="M382,-169C372,-157 360,-142 349,-130"/>
<polygon style="fill:black;stroke:black;" points="382.415,-169.474 385.613,-179.963 384.39,-171.732 389,-177 384.39,-171.732 392.387,-174.037 382.415,-169.474 382.415,-169.474"/>
<polygon style="fill:black;stroke:black;" points="349,-130 346.6,-119.3 347.2,-127.6 343,-122 347.2,-127.6 339.4,-124.7 349,-130 349,-130"/>
</g>
<!-- Recipe&#45;&gt;Item -->
<g id="edge16" class="edge"><title>Recipe&#45;&gt;Item</title>
<path style="fill:none;stroke:black;" d="M403,-168C403,-158 403,-145 403,-134"/>
<ellipse style="fill:none;stroke:black;" cx="403" cy="-172" rx="4" ry="4"/>
<polygon style="fill:black;stroke:black;" points="403,-134 407.5,-124 403,-131 403,-124 403,-131 398.5,-124 403,-134 403,-134"/>
</g>
<!-- Recipe&#45;&gt;RecipePhoto -->
<g id="edge14" class="edge"><title>Recipe&#45;&gt;RecipePhoto</title>
<path style="fill:none;stroke:black;" d="M421,-171C429,-161 438,-150 448,-142 453,-137 459,-133 465,-128"/>
<ellipse style="fill:none;stroke:black;" cx="418.561" cy="-173.927" rx="4.00002" ry="4.00002"/>
<polygon style="fill:black;stroke:black;" points="465,-128 475.7,-125.6 467.4,-126.2 473,-122 467.4,-126.2 470.3,-118.4 465,-128 465,-128"/>
<text text-anchor="middle" x="467" y="-145.65" style="font-family:Times New Roman;font-size:14.00;">photos</text>
</g>
<!-- ::RecipePhoto -->
<g id="node22" class="node"><title>::RecipePhoto</title>
<ellipse style="fill:none;stroke:black;" cx="498" cy="-18" rx="53.0734" ry="18"/>
<text text-anchor="middle" x="498" y="-13.65" style="font-family:Times New Roman;font-size:14.00;">::RecipePhoto</text>
</g>
<!-- RecipePhoto&#45;&gt;::RecipePhoto -->
<g id="edge18" class="edge"><title>RecipePhoto&#45;&gt;::RecipePhoto</title>
<path style="fill:none;stroke:black;" d="M498,-80C498,-70 498,-57 498,-46"/>
<ellipse style="fill:none;stroke:black;" cx="498" cy="-84" rx="4" ry="4"/>
<polygon style="fill:black;stroke:black;" points="498,-46 502.5,-36 498,-43 498,-36 498,-43 493.5,-36 498,-46 498,-46"/>
<text text-anchor="middle" x="529" y="-57.65" style="font-family:Times New Roman;font-size:14.00;">thumbnails</text>
</g>
<!-- Store -->
<g id="node11" class="node"><title>Store</title>
<ellipse style="fill:none;stroke:black;" cx="256" cy="-292" rx="27.95" ry="18"/>
<text text-anchor="middle" x="256" y="-287.65" style="font-family:Times New Roman;font-size:14.00;">Store</text>
</g>
<!-- Store&#45;&gt;Receipt -->
<g id="edge22" class="edge"><title>Store&#45;&gt;Receipt</title>
<path style="fill:none;stroke:black;" d="M256,-266C256,-253 256,-236 256,-222"/>
<ellipse style="fill:none;stroke:black;" cx="256" cy="-270" rx="4" ry="4"/>
<polygon style="fill:black;stroke:black;" points="256,-222 260.5,-212 256,-219 256,-212 256,-219 251.5,-212 256,-222 256,-222"/>
</g>
<!-- User -->
<g id="node12" class="node"><title>User</title>
<ellipse style="fill:none;stroke:black;" cx="330" cy="-292" rx="27" ry="18"/>
<text text-anchor="middle" x="330" y="-287.65" style="font-family:Times New Roman;font-size:14.00;">User</text>
</g>
<!-- User&#45;&gt;Food -->
<g id="edge28" class="edge"><title>User&#45;&gt;Food</title>
<path style="fill:none;stroke:black;" d="M330,-266C330,-231 330,-170 330,-134"/>
<ellipse style="fill:none;stroke:black;" cx="330" cy="-270" rx="4" ry="4"/>
<polygon style="fill:black;stroke:black;" points="330,-134 334.5,-124 330,-131 330,-124 330,-131 325.5,-124 330,-134 330,-134"/>
</g>
<!-- User&#45;&gt;Receipt -->
<g id="edge26" class="edge"><title>User&#45;&gt;Receipt</title>
<path style="fill:none;stroke:black;" d="M313,-269C301,-254 287,-234 275,-219"/>
<ellipse style="fill:none;stroke:black;" cx="315.675" cy="-272.745" rx="4.00002" ry="4.00002"/>
<polygon style="fill:black;stroke:black;" points="275,-219 272.6,-208.3 273.2,-216.6 269,-211 273.2,-216.6 265.4,-213.7 275,-219 275,-219"/>
</g>
<!-- User&#45;&gt;Recipe -->
<g id="edge24" class="edge"><title>User&#45;&gt;Recipe</title>
<path style="fill:none;stroke:black;" d="M347,-269C359,-254 373,-235 384,-219"/>
<ellipse style="fill:none;stroke:black;" cx="344.325" cy="-272.745" rx="4.00002" ry="4.00002"/>
<polygon style="fill:black;stroke:black;" points="384,-219 393.6,-213.7 385.8,-216.6 390,-211 385.8,-216.6 386.4,-208.3 384,-219 384,-219"/>
</g>
</g>
</svg>
